<svg width="1619" height="334" viewBox="0 0 1619 334" fill="none" xmlns="http://www.w3.org/2000/svg">
<path d="M26.931 232.359C32.5834 229.422 38.8164 231.352 41.6852 236.85C43.8198 240.949 43.1197 245.149 40.8485 247.609L37.3478 244.996C38.8334 243.374 39.3116 241 38.1162 238.712C36.3744 235.347 32.6687 234.391 28.9802 236.321C25.2574 238.251 23.9767 241.939 25.7185 245.286C27.0676 247.882 29.8511 249.436 32.498 248.07L32.5492 248.035L29.9194 242.964L33.2323 241.239L37.9113 250.255L35.8962 251.297C29.6803 254.525 24.4207 251.485 22.1495 247.13C19.3147 241.683 21.2956 235.279 26.9139 232.359H26.931Z" fill="#15395B"/>
<path d="M38.3895 258.76L49.1307 250.512L51.8459 254.029L41.3438 262.107C39.3116 263.661 38.9189 266.256 40.4387 268.22C41.9585 270.201 44.5713 270.474 46.5863 268.92L57.0885 260.843L59.8037 264.361L49.0624 272.609C45.3397 275.478 40.3192 274.658 37.2453 270.662C34.1715 266.666 34.6668 261.611 38.3895 258.743V258.76Z" fill="#15395B"/>
<path d="M67.9151 272.643L72.2355 276.69L62.8945 297.251L59.3597 293.938L61.2893 289.771L55.5686 284.409L51.5385 286.612L48.0207 283.316L67.9151 272.66V272.643ZM63.0312 286.082L66.7197 278.244L59.1206 282.411L63.0312 286.082Z" fill="#15395B"/>
<path d="M81.6618 284.699L88.4413 289.259C92.1128 291.718 93.4277 295.423 90.9345 299.146C89.3122 301.571 86.9727 302.493 84.5136 302.083L83.8135 311.868L79.6639 309.085L80.3811 300.239L77.7683 298.48L73.4479 304.918L69.7593 302.442L81.6618 284.699ZM83.045 297.37C84.599 298.412 86.2725 298.122 87.2459 296.67C88.2364 295.201 87.8607 293.528 86.3238 292.486L83.1987 290.386L79.92 295.27L83.045 297.37Z" fill="#15395B"/>
<path d="M100.241 296.585L106.594 299.471C112.912 302.339 115.098 308.265 112.537 313.9C109.975 319.536 104.032 321.79 97.7311 318.921L91.3785 316.035L100.224 296.585H100.241ZM99.4388 315.454C103.23 317.179 106.765 315.847 108.472 312.073C110.197 308.282 108.865 304.781 105.074 303.057L102.666 301.964L97.0139 314.361L99.4217 315.454H99.4388Z" fill="#15395B"/>
<path d="M122.646 305.857L126.898 307.172L120.563 327.596L116.311 326.281L122.646 305.857Z" fill="#15395B"/>
<path d="M139.04 310.178L144.863 311.202L148.278 333.504L143.497 332.668L142.848 328.125L135.129 326.759L132.96 330.806L128.213 329.97L139.04 310.178ZM142.284 324.095L141.089 315.523L137.008 323.156L142.284 324.078V324.095Z" fill="#15395B"/>
<path d="M169.436 323.805C168.924 317.452 173.125 312.466 179.289 311.954C183.9 311.578 187.503 313.849 188.87 316.906L185.113 319.109C184.208 317.111 182.193 315.745 179.614 315.95C175.84 316.257 173.535 319.297 173.859 323.429C174.201 327.596 176.967 330.226 180.741 329.918C183.32 329.713 185.078 328.04 185.659 325.922L189.723 327.493C188.87 330.721 185.659 333.556 181.065 333.914C174.952 334.41 169.931 330.089 169.419 323.788L169.436 323.805Z" fill="#15395B"/>
<path d="M196.349 321.073C194.676 315.01 198.091 309.17 204.341 307.445C210.591 305.721 216.517 308.999 218.19 315.045C219.864 321.107 216.431 326.981 210.215 328.706C204 330.431 198.023 327.135 196.349 321.073ZM213.904 316.223C212.811 312.244 209.174 310.263 205.4 311.305C201.643 312.346 199.525 315.898 200.635 319.877C201.728 323.856 205.383 325.854 209.14 324.812C212.896 323.771 214.997 320.185 213.904 316.206V316.223Z" fill="#15395B"/>
<path d="M226.831 316.889L229.41 313.849C231.391 315.523 233.798 315.915 235.882 314.925C237.521 314.139 238.187 312.842 237.589 311.595C237.163 310.69 236.309 310.331 234.96 310.502L230.588 311.066C227.019 311.527 224.577 310.4 223.347 307.821C221.725 304.423 223.313 300.768 227.275 298.873C230.742 297.216 234.464 297.729 236.992 300.239L234.43 303.279C232.859 301.844 230.81 301.486 228.932 302.374C227.292 303.159 226.626 304.525 227.207 305.772C227.634 306.677 228.556 307.07 229.905 306.899L234.174 306.318C237.76 305.84 240.151 306.899 241.38 309.495C243.003 312.893 241.312 316.616 237.248 318.562C233.594 320.304 229.495 319.724 226.78 316.906L226.831 316.889Z" fill="#15395B"/>
<path d="M245.479 293.545L240.971 296.55L238.819 293.323L251.473 284.87L253.624 288.097L249.185 291.069L258.918 305.635L255.213 308.111L245.479 293.545Z" fill="#15395B"/>
<path d="M255.554 281.472L258.97 278.62L272.682 295.031L269.267 297.882L255.554 281.472Z" fill="#15395B"/>
<path d="M264.178 274.095L274.134 263.729L276.934 266.41L270.052 273.565L273.553 276.929L280.025 270.184L282.826 272.865L276.337 279.61L279.871 283.009L286.753 275.853L289.554 278.534L279.598 288.9L264.178 274.095Z" fill="#15395B"/>
<path d="M277.651 259.477L282.382 252.817C284.943 249.214 288.683 248.001 292.337 250.597C294.728 252.288 295.565 254.661 295.104 257.103L304.872 258.059L301.986 262.124L293.157 261.167L291.33 263.746L297.648 268.237L295.07 271.858L277.651 259.477ZM290.356 258.452C291.432 256.932 291.193 255.242 289.776 254.234C288.324 253.21 286.651 253.534 285.575 255.054L283.406 258.111L288.205 261.526L290.391 258.469L290.356 258.452Z" fill="#15395B"/>
<path d="M292.559 236.082L295.155 230.771L317.526 233.674L315.391 238.029L310.849 237.397L307.399 244.432L310.678 247.643L308.56 251.98L292.542 236.099L292.559 236.082ZM306.836 236.816L298.263 235.587L304.479 241.632L306.836 236.816Z" fill="#15395B"/>
<path d="M25.1891 116.732C19.9295 114.888 17.4192 109.765 19.2123 104.642C20.5443 100.834 23.6352 98.7506 26.5724 98.7336L26.9993 102.525C25.0867 102.542 23.2766 103.669 22.5252 105.803C21.4323 108.928 23.0375 111.866 26.4699 113.061C29.9194 114.273 33.0103 112.976 34.1032 109.851C34.8546 107.716 34.1374 105.718 32.6517 104.505L35.3498 101.807C37.6381 103.635 38.7481 107.204 37.4161 111.012C35.6401 116.084 30.4146 118.56 25.1891 116.732Z" fill="#15395B"/>
<path d="M28.1264 84.9355L30.6025 80.3931L50.0529 83.7743L48.0208 87.4971L44.0761 86.7798L40.7973 92.7908L43.5467 95.711L41.5316 99.4166L28.1264 84.9355ZM40.5753 86.1138L33.1299 84.7306L38.3212 90.2464L40.5583 86.1309L40.5753 86.1138Z" fill="#15395B"/>
<path d="M38.1162 68.2174L42.4537 62.4967C44.7932 59.4229 48.0891 58.4496 51.2141 60.8232C54.2708 63.1457 54.2538 66.6464 51.9655 69.686L49.9846 72.3159L55.3808 76.3972L53.0413 79.5052L38.1333 68.2345L38.1162 68.2174ZM49.2673 67.6198C50.2578 66.3219 50.087 64.8363 48.8575 63.9141C47.6109 62.9749 46.1423 63.214 45.1689 64.5118L43.171 67.1587L47.2694 70.2666L49.2673 67.6198Z" fill="#15395B"/>
<path d="M51.8288 51.2773L54.5098 48.4426L68.1029 61.3014L65.4219 64.1361L51.8288 51.2773Z" fill="#15395B"/>
<path d="M65.5244 42.6194L61.9383 45.7103L59.7183 43.1488L69.7936 34.4568L72.0136 37.0183L68.4787 40.075L78.4686 51.6701L75.5143 54.2145L65.5244 42.6194Z" fill="#15395B"/>
<path d="M79.1175 27.8139L83.4379 24.9792L98.9606 37.172L95.4087 39.4944L92.2665 36.9841L86.5288 40.741L87.5704 44.6174L84.0356 46.9228L79.1004 27.8139H79.1175ZM89.5172 34.73L83.6257 29.9827L85.5895 37.3086L89.5172 34.7471V34.73Z" fill="#15395B"/>
<path d="M95.9209 17.7216L98.6532 16.5091L110.88 23.2203L106.338 13.0767L109.89 11.4886L117.523 28.5482L114.774 29.7777L102.461 22.8275L107.106 33.2102L103.554 34.7983L95.9209 17.7387V17.7216Z" fill="#15395B"/>
<path d="M118.718 8.41475L130.826 4.99941L131.748 8.26106L123.397 10.6177L124.542 14.699L132.414 12.479L133.336 15.7407L125.464 17.9606L126.625 22.0932L134.975 19.7366L135.898 22.9983L123.79 26.4136L118.718 8.41475Z" fill="#15395B"/>
<path d="M138.766 3.37713L145.853 2.42083C149.678 1.90853 152.701 3.58205 153.23 7.45846C153.572 10.0029 152.564 11.9496 150.72 13.1109L155.946 19.9245L151.608 20.5051L146.946 14.2892L144.214 14.6648L145.119 21.376L141.26 21.9054L138.749 3.36005L138.766 3.37713ZM147.032 10.8738C148.654 10.6518 149.576 9.49059 149.371 7.97077C149.166 6.43386 147.954 5.54587 146.331 5.76787L143.07 6.21186L143.753 11.3178L147.015 10.8738H147.032Z" fill="#15395B"/>
<path d="M160.966 1.14007L164.86 1.05469L165.287 19.7537L161.393 19.8391L160.966 1.14007Z" fill="#15395B"/>
<path d="M173.671 1.10592L186.206 2.13052L185.932 5.51171L177.274 4.81157L176.933 9.04659L185.096 9.71259L184.822 13.0938L176.66 12.4278L176.318 16.697L184.976 17.3971L184.703 20.7783L172.169 19.7537L173.671 1.10592Z" fill="#15395B"/>
<path d="M207.517 6.31432L213.323 8.19276C219.095 10.0712 221.589 14.9893 219.915 20.1465C218.242 25.3036 213.306 27.8481 207.552 25.9696L201.745 24.0912L207.517 6.31432ZM208.696 22.7763C212.162 23.9034 215.099 22.4006 216.227 18.934C217.354 15.4674 215.834 12.5644 212.384 11.4373L210.181 10.7201L206.51 22.0591L208.713 22.7763H208.696Z" fill="#15395B"/>
<path d="M230.264 14.6136L233.798 16.253L225.943 33.2272L222.408 31.5879L230.264 14.6136Z" fill="#15395B"/>
<path d="M253.283 27.1992L259.089 31.4342C262.214 33.7054 263.222 37.0012 260.916 40.1604C258.645 43.2683 255.144 43.3025 252.053 41.0654L249.407 39.1187L245.411 44.6003L242.268 42.3121L253.3 27.2162L253.283 27.1992ZM254.068 38.3332C255.383 39.2895 256.869 39.1016 257.774 37.8721C258.696 36.6084 258.423 35.1398 257.108 34.1835L254.427 32.2368L251.387 36.3864L254.068 38.3332Z" fill="#15395B"/>
<path d="M264.076 47.0594C267.986 43.2001 273.912 43.3196 277.891 47.3497C281.869 51.3969 281.904 57.3225 277.976 61.1818C274.065 65.0412 268.106 64.9216 264.144 60.9086C260.182 56.8785 260.148 50.9187 264.076 47.0594ZM275.261 58.3983C277.839 55.8539 277.788 52.2336 275.397 49.8087C273.007 47.3839 269.386 47.2814 266.808 49.8087C264.229 52.3532 264.263 55.9905 266.654 58.4154C269.045 60.8403 272.682 60.9257 275.261 58.3813V58.3983Z" fill="#15395B"/>
<path d="M290.237 61.7112L294.37 67.5515C296.607 70.7107 296.521 74.1602 293.311 76.4143C291.228 77.9 289.025 77.917 287.129 76.8071L283.509 84.594L280.981 81.025L284.328 74.0235L282.74 71.7694L277.208 75.68L274.953 72.5037L290.237 61.7112ZM287.419 72.4866C288.359 73.8186 289.827 74.1089 291.074 73.2209C292.337 72.3159 292.559 70.8473 291.62 69.5153L289.725 66.8342L285.524 69.8056L287.419 72.4866Z" fill="#15395B"/>
<path d="M300.961 84.6282L298.758 80.4273L301.764 78.8562L307.946 90.6392L304.94 92.2102L302.771 88.0777L289.212 95.1816L287.402 91.7321L300.961 84.6282Z" fill="#15395B"/>
<path d="M302.003 99.7923C307.194 97.9993 312.488 100.646 314.349 106.008C316.211 111.37 313.683 116.732 308.492 118.525C303.301 120.319 297.973 117.655 296.129 112.327C294.284 106.999 296.829 101.602 302.02 99.8094L302.003 99.7923ZM307.228 114.837C310.644 113.659 312.164 110.363 311.036 107.135C309.927 103.908 306.699 102.268 303.284 103.447C299.868 104.625 298.331 107.921 299.441 111.148C300.551 114.376 303.813 116.015 307.228 114.82V114.837Z" fill="#15395B"/>
<path d="M245.069 222.523C258.252 200.152 251.934 168.492 251.917 168.407H251.9L244.437 138.198C244.198 137.225 242.866 137.071 242.405 137.959L224.201 173.513C223.774 174.349 224.526 175.289 225.431 175.067L233.406 173.086C237.419 196.378 229.102 208.452 229.102 208.452L181.954 163.915L213.187 130.855C215.629 128.276 219.727 128.225 222.221 130.752L231.288 139.991L243.72 127.73L229.017 113.232C230.861 113.846 232.808 114.256 234.857 114.256C245.12 114.256 253.437 105.94 253.437 95.6769C253.437 85.4137 245.12 77.0974 234.857 77.0974C224.594 77.0974 216.278 85.4137 216.278 95.6769C216.278 97.6578 216.671 99.5191 217.234 101.295L202.429 86.3017L190.167 98.7336L199.508 107.904C202.036 110.397 201.985 114.495 199.406 116.937L165.799 148.683L132.192 116.937C129.613 114.495 129.562 110.397 132.09 107.904L141.431 98.7336L129.169 86.3017L114.364 101.295C114.927 99.5191 115.32 97.6407 115.32 95.6769C115.32 85.4137 107.004 77.0974 96.7407 77.0974C86.4776 77.0974 78.1612 85.4137 78.1612 95.6769C78.1612 105.94 86.4776 114.256 96.7407 114.256C98.7899 114.256 100.737 113.846 102.581 113.232L87.8779 127.73L100.31 139.991L109.377 130.752C111.871 128.225 115.969 128.259 118.411 130.855L149.644 163.915L102.496 208.452C102.496 208.452 94.1792 196.378 98.1922 173.086L106.167 175.067C107.072 175.289 107.824 174.349 107.397 173.513L89.1928 137.959C88.7317 137.071 87.4168 137.207 87.1607 138.198L79.6981 168.407H79.6811C79.664 168.492 73.3456 200.152 86.5288 222.523C88.134 225.255 89.227 228.295 89.6539 231.403C90.0637 234.408 88.783 236.816 87.5705 239.582C86.6313 241.734 85.7604 243.391 86.3068 243.835L86.2215 243.92C86.6484 244.501 88.3219 243.613 90.4906 242.673C93.2741 241.461 95.682 240.18 98.6704 240.59C101.778 241.017 104.818 242.11 107.55 243.715C129.921 256.898 161.581 250.58 161.666 250.563C161.666 250.563 161.462 249.726 161.137 248.394H161.171L161.701 250.546L165.782 249.538L169.863 250.546L170.393 248.394H170.427C170.102 249.709 169.897 250.546 169.897 250.546C169.983 250.563 201.643 256.881 224.014 243.698C226.746 242.076 229.785 241 232.893 240.573C235.899 240.163 238.307 241.444 241.073 242.656C243.242 243.595 244.915 244.501 245.342 243.903L245.257 243.817C245.821 243.373 244.933 241.717 243.993 239.565C242.781 236.782 241.5 234.374 241.91 231.386C242.337 228.278 243.43 225.238 245.035 222.506L245.069 222.523ZM234.857 87.4117C239.417 87.4117 243.122 91.1174 243.122 95.6769C243.122 100.236 239.417 103.942 234.857 103.942C230.298 103.942 226.592 100.236 226.592 95.6769C226.592 91.1174 230.298 87.4117 234.857 87.4117ZM96.7578 103.993C92.1983 103.993 88.4927 100.288 88.4927 95.7281C88.4927 91.1686 92.1983 87.4629 96.7578 87.4629C101.317 87.4629 105.023 91.1686 105.023 95.7281C105.023 100.288 101.317 103.993 96.7578 103.993ZM174.833 232.103L174.491 231.932L176.438 224.077C176.66 223.172 175.721 222.42 174.884 222.847L165.816 227.492L156.748 222.847C155.912 222.42 154.972 223.172 155.194 224.077L157.141 231.932L156.8 232.103C133.661 236.013 121.656 227.765 121.656 227.765L165.816 181.009L209.976 227.765C209.976 227.765 197.989 236.03 174.833 232.103Z" fill="#15395B"/>
<path d="M14.5504 158.758L17.2998 167.228C17.4023 167.536 17.6926 167.741 17.9999 167.741H26.8969C27.6141 167.741 27.9215 168.663 27.3409 169.09L20.1345 174.315C19.8784 174.503 19.7588 174.845 19.8613 175.152L22.6107 183.622C22.8327 184.305 22.0471 184.869 21.4665 184.459L14.2601 179.233C14.004 179.045 13.6454 179.045 13.3892 179.233L6.18284 184.459C5.60223 184.886 4.8167 184.305 5.0387 183.622L7.78805 175.152C7.89051 174.845 7.78805 174.503 7.51483 174.315L0.308447 169.09C-0.272162 168.663 0.0181429 167.741 0.752442 167.741H9.64942C9.97388 167.741 10.2642 167.536 10.3496 167.228L13.0989 158.758C13.3209 158.075 14.2943 158.075 14.5163 158.758H14.5504Z" fill="#15395B"/>
<path d="M317.44 158.758L320.19 167.228C320.292 167.536 320.582 167.741 320.89 167.741H329.787C330.504 167.741 330.811 168.663 330.231 169.09L323.024 174.315C322.768 174.503 322.649 174.845 322.751 175.152L325.501 183.622C325.723 184.305 324.937 184.869 324.356 184.459L317.15 179.233C316.894 179.045 316.535 179.045 316.279 179.233L309.073 184.459C308.492 184.886 307.707 184.305 307.929 183.622L310.678 175.152C310.78 174.845 310.678 174.503 310.405 174.315L303.198 169.09C302.618 168.663 302.908 167.741 303.642 167.741H312.539C312.864 167.741 313.154 167.536 313.239 167.228L315.989 158.758C316.211 158.075 317.184 158.075 317.406 158.758H317.44Z" fill="#15395B"/>
<path d="M143.787 65.5194V67.9443H146.605V79.9321H149.354V65.5194H143.787Z" fill="#15395B"/>
<path d="M160.847 72.7258C160.608 72.5379 160.351 72.3842 160.078 72.2476C160.266 72.1451 160.437 72.0256 160.608 71.889C160.983 71.5475 161.274 71.1376 161.461 70.6766C161.649 70.1984 161.752 69.7202 161.752 69.2079C161.752 68.4224 161.564 67.7393 161.188 67.1587C160.813 66.5781 160.3 66.1171 159.634 65.7926C158.985 65.4681 158.217 65.2974 157.363 65.2974C156.509 65.2974 155.741 65.4681 155.075 65.7926C154.409 66.1171 153.896 66.5781 153.521 67.1587C153.145 67.7393 152.957 68.4224 152.957 69.2079C152.957 69.7202 153.06 70.1984 153.248 70.6766C153.435 71.1547 153.726 71.5475 154.101 71.889C154.255 72.0256 154.443 72.1451 154.631 72.2476C154.358 72.3842 154.084 72.5379 153.845 72.7258C153.367 73.1014 152.991 73.5625 152.735 74.109C152.479 74.6554 152.342 75.2702 152.342 75.9362C152.342 76.7388 152.547 77.4731 152.974 78.1049C153.401 78.7368 153.965 79.2491 154.716 79.6077C155.468 79.9663 156.338 80.1371 157.363 80.1371C158.388 80.1371 159.259 79.9663 160.01 79.6077C160.761 79.2491 161.342 78.7538 161.752 78.1049C162.162 77.456 162.367 76.7388 162.367 75.9362C162.367 75.2702 162.23 74.6554 161.974 74.109C161.718 73.5625 161.342 73.1014 160.864 72.7258H160.847ZM156.031 68.115C156.373 67.7735 156.817 67.6027 157.346 67.6027C157.875 67.6027 158.319 67.7735 158.661 68.115C159.002 68.4566 159.173 68.9006 159.173 69.447C159.173 69.9935 159.002 70.4204 158.661 70.7619C158.319 71.1035 157.875 71.2742 157.346 71.2742C156.817 71.2742 156.373 71.1035 156.031 70.7619C155.69 70.4204 155.502 69.9764 155.502 69.4299C155.502 68.8835 155.672 68.4566 156.031 68.115ZM159.395 76.6534C159.19 76.9779 158.917 77.234 158.558 77.4219C158.2 77.6097 157.807 77.6951 157.346 77.6951C156.885 77.6951 156.475 77.6097 156.134 77.4219C155.792 77.234 155.502 76.9779 155.297 76.6534C155.092 76.3289 154.989 75.9533 154.989 75.5434C154.989 75.1336 155.092 74.7408 155.297 74.4334C155.502 74.109 155.775 73.8528 156.134 73.682C156.492 73.5113 156.885 73.4088 157.346 73.4088C157.807 73.4088 158.2 73.4942 158.558 73.682C158.917 73.8699 159.19 74.1261 159.395 74.4334C159.6 74.7579 159.685 75.1336 159.685 75.5434C159.685 75.9533 159.583 76.3289 159.395 76.6534Z" fill="#15395B"/>
<path d="M172.578 70.9839C171.878 70.5741 171.11 70.3862 170.239 70.3862C169.949 70.3862 169.692 70.4033 169.453 70.4546L172.971 65.5364H169.778L165.782 71.3084C164.911 72.5891 164.467 73.8699 164.467 75.1336C164.467 76.0557 164.689 76.9096 165.15 77.6609C165.611 78.4123 166.226 79.0271 167.011 79.4711C167.797 79.9151 168.685 80.1371 169.658 80.1371C170.632 80.1371 171.503 79.9151 172.305 79.454C173.091 79.01 173.723 78.3952 174.184 77.6268C174.645 76.8583 174.884 76.0045 174.884 75.0653C174.884 74.126 174.679 73.3405 174.252 72.6404C173.825 71.9402 173.261 71.3767 172.578 70.9839ZM171.81 76.3631C171.588 76.7559 171.298 77.0632 170.922 77.2852C170.546 77.5072 170.136 77.6268 169.658 77.6268C169.18 77.6268 168.753 77.5072 168.378 77.2852C168.002 77.0632 167.712 76.7559 167.49 76.3631C167.268 75.9703 167.165 75.5263 167.165 75.0482C167.165 74.57 167.268 74.1261 167.49 73.7333C167.694 73.3576 168.002 73.0502 168.378 72.8282C168.753 72.6062 169.18 72.4867 169.658 72.4867C170.136 72.4867 170.563 72.5891 170.922 72.8111C171.298 73.0331 171.588 73.3405 171.81 73.7162C172.032 74.0919 172.134 74.553 172.134 75.0311C172.134 75.5093 172.032 75.9703 171.81 76.346V76.3631Z" fill="#15395B"/>
<path d="M186.411 72.8794C186.035 72.1622 185.505 71.5816 184.805 71.1547C184.105 70.7278 183.217 70.5058 182.176 70.5058C181.68 70.5058 181.253 70.557 180.895 70.6424C180.639 70.7107 180.417 70.8131 180.195 70.9327L180.519 67.9272H186.171V65.5023H178.265L177.616 72.1451L178.948 73.46C179.324 73.1697 179.734 72.9648 180.143 72.8282C180.553 72.6916 181.031 72.6404 181.544 72.6404C182.039 72.6404 182.483 72.7428 182.876 72.9307C183.268 73.1185 183.593 73.4088 183.832 73.7674C184.071 74.1431 184.191 74.5871 184.191 75.1165C184.191 75.6459 184.071 76.0557 183.832 76.4314C183.593 76.8071 183.268 77.0974 182.842 77.3023C182.415 77.5072 181.936 77.6097 181.373 77.6097C180.758 77.6097 180.195 77.4902 179.682 77.234C179.17 76.9949 178.777 76.6534 178.504 76.2435L176.66 78.0707C177.206 78.7197 177.889 79.232 178.709 79.5735C179.529 79.915 180.434 80.1029 181.441 80.1029C182.551 80.1029 183.508 79.898 184.344 79.471C185.164 79.0612 185.813 78.4806 186.274 77.7463C186.735 77.012 186.974 76.1752 186.974 75.2189C186.974 74.3651 186.786 73.5625 186.428 72.8453L186.411 72.8794Z" fill="#15395B"/>
<path d="M130.331 192.331C130.382 192.229 130.416 192.109 130.467 192.007C139.603 174.64 148.739 157.273 157.876 139.906C157.927 139.82 157.978 139.718 158.029 139.632H205.093C205.024 139.786 204.973 139.906 204.905 140.025C202.839 143.936 200.789 147.863 198.723 151.774C191.687 165.162 184.635 178.55 177.599 191.938C177.531 192.075 177.463 192.212 177.394 192.348H130.331V192.331ZM184.379 165.931C184.327 156.982 176.694 150.1 167.712 150.1C158.61 150.1 151.062 157.119 151.062 165.948C151.062 174.759 158.61 181.778 167.729 181.778C176.728 181.778 184.344 174.879 184.379 165.931Z" fill="#CE2937"/>
<path d="M119.248 192.331C120.375 190.179 121.519 188.011 122.646 185.859C130.672 170.592 138.698 155.326 146.724 140.059C146.998 139.547 146.895 139.632 147.442 139.632C148.944 139.632 150.447 139.632 151.933 139.632C152.052 139.632 152.172 139.632 152.343 139.632C152.257 139.786 152.206 139.906 152.155 140.008C147.51 148.837 142.882 157.648 138.237 166.477C133.78 174.947 129.323 183.417 124.866 191.887C124.798 192.024 124.729 192.177 124.661 192.314H119.214L119.248 192.331Z" fill="#0B9246"/>
<path d="M124.849 192.331C125.976 190.179 127.12 188.011 128.247 185.859C136.273 170.592 144.299 155.326 152.326 140.059C152.599 139.547 152.496 139.632 153.043 139.632C154.545 139.632 156.048 139.632 157.534 139.632C157.653 139.632 157.773 139.632 157.944 139.632C157.858 139.786 157.807 139.906 157.756 140.008C153.111 148.837 148.483 157.648 143.838 166.477C139.381 174.947 134.924 183.417 130.467 191.887C130.399 192.024 130.331 192.177 130.262 192.314H124.815L124.849 192.331Z" fill="#15395B"/>
<path d="M184.379 165.931C184.344 174.879 176.728 181.778 167.729 181.778C158.627 181.778 151.079 174.759 151.062 165.948C151.062 157.119 158.61 150.117 167.712 150.1C176.694 150.1 184.344 156.982 184.379 165.931ZM167.114 158.366C165.765 158.366 164.45 158.366 163.152 158.366C163.067 158.366 162.964 158.314 162.896 158.263C162.503 157.922 162.025 157.836 161.53 157.939C161.052 158.041 160.676 158.417 160.625 158.827C160.574 159.254 160.847 159.646 161.325 159.851C161.871 160.073 162.384 160.005 162.828 159.646C162.981 159.51 163.135 159.476 163.34 159.476C164.484 159.476 165.645 159.476 166.79 159.476C166.892 159.476 167.012 159.476 167.148 159.476C167.148 159.629 167.148 159.732 167.148 159.851C167.148 164.599 167.148 169.346 167.148 174.076C167.148 174.247 167.148 174.418 167.114 174.588C167.012 175.186 166.516 175.579 165.885 175.545C165.475 175.528 165.065 175.476 164.655 175.391C163.221 175.101 161.974 174.469 160.847 173.598C160.01 172.949 159.31 172.215 158.815 171.293C158.559 170.814 158.388 170.319 158.337 169.773C158.285 169.312 158.473 168.987 158.9 168.765C159.037 168.697 159.19 168.646 159.327 168.594C159.395 168.56 159.481 168.543 159.617 168.492C158.098 168.099 156.646 167.689 155.365 166.767C155.656 168.321 155.331 169.756 154.973 171.241C155.229 171.019 155.399 170.814 155.638 170.661C156.253 170.268 156.629 170.353 157.005 170.814C157.21 171.071 157.414 171.327 157.602 171.583C157.893 171.959 158.183 172.334 158.473 172.727C159.703 174.332 161.308 175.425 163.272 176.04C164.091 176.296 164.928 176.552 165.748 176.808C166.482 177.03 167.029 177.44 167.387 178.089C167.49 178.26 167.609 178.431 167.729 178.636C167.814 178.499 167.9 178.397 167.951 178.294C168.378 177.491 169.027 176.979 169.932 176.757C169.983 176.757 170.034 176.723 170.085 176.706C170.786 176.484 171.486 176.279 172.186 176.057C174.013 175.476 175.567 174.503 176.745 173.034C177.155 172.522 177.531 172.01 177.941 171.498C178.163 171.207 178.402 170.934 178.658 170.661C178.863 170.439 179.136 170.405 179.426 170.49C179.734 170.575 179.956 170.746 180.178 170.968C180.263 171.054 180.349 171.139 180.434 171.224C180.451 171.224 180.468 171.207 180.485 171.19C180.109 169.773 179.853 168.338 180.092 166.784C178.795 167.724 177.36 168.116 175.84 168.509C176.028 168.577 176.148 168.612 176.267 168.663C177.001 168.936 177.223 169.295 177.087 170.029C177.087 170.046 177.087 170.063 177.087 170.097C176.95 170.883 176.592 171.583 176.079 172.198C174.457 174.144 172.374 175.323 169.744 175.562C168.958 175.63 168.429 175.22 168.344 174.469C168.344 174.383 168.344 174.298 168.344 174.213C168.344 169.414 168.344 164.616 168.344 159.817C168.344 159.732 168.344 159.629 168.361 159.527C168.446 159.527 168.514 159.51 168.583 159.51C169.795 159.51 171.025 159.51 172.237 159.51C172.408 159.51 172.493 159.578 172.613 159.68C173.108 160.107 173.945 160.141 174.474 159.749C174.952 159.39 175.003 158.758 174.559 158.348C174.064 157.87 173.228 157.836 172.664 158.28C172.527 158.383 172.391 158.434 172.22 158.434C171.042 158.434 169.846 158.434 168.668 158.434C168.566 158.434 168.48 158.434 168.378 158.417V157.119C169.436 156.76 169.966 155.872 169.829 154.984C169.676 154.079 168.839 153.328 167.934 153.26C166.943 153.191 166.038 153.755 165.765 154.626C165.628 155.053 165.645 155.48 165.816 155.906C166.055 156.521 166.533 156.88 167.165 157.085V158.417L167.114 158.366Z" fill="#15395B"/>
<path d="M167.114 158.366L167.114 157.034C166.499 156.829 166.021 156.453 165.765 155.855C165.594 155.428 165.577 155.001 165.714 154.575C165.987 153.704 166.892 153.14 167.882 153.208C168.805 153.26 169.641 154.028 169.778 154.933C169.915 155.821 169.385 156.709 168.326 157.068V158.366C168.429 158.366 168.531 158.383 168.617 158.383C169.795 158.383 170.99 158.383 172.169 158.383C172.339 158.383 172.476 158.331 172.613 158.229C173.176 157.785 174.013 157.819 174.508 158.297C174.935 158.707 174.901 159.339 174.423 159.698C173.911 160.09 173.057 160.073 172.561 159.629C172.459 159.527 172.357 159.458 172.186 159.458C170.973 159.458 169.744 159.458 168.531 159.458C168.463 159.458 168.395 159.458 168.309 159.476C168.309 159.578 168.292 159.68 168.292 159.766C168.292 164.564 168.292 169.363 168.292 174.162C168.292 174.247 168.292 174.332 168.292 174.418C168.378 175.169 168.907 175.579 169.693 175.511C172.322 175.254 174.406 174.076 176.028 172.146C176.54 171.532 176.899 170.832 177.036 170.046C177.036 170.029 177.036 170.012 177.036 169.978C177.155 169.243 176.933 168.885 176.216 168.612C176.096 168.56 175.977 168.526 175.789 168.458C177.309 168.065 178.743 167.672 180.041 166.733C179.802 168.27 180.075 169.704 180.434 171.139C180.417 171.139 180.4 171.156 180.383 171.173C180.297 171.088 180.212 171.002 180.126 170.917C179.922 170.712 179.682 170.524 179.375 170.439C179.085 170.353 178.812 170.388 178.607 170.61C178.368 170.883 178.128 171.173 177.889 171.446C177.48 171.959 177.104 172.471 176.694 172.983C175.516 174.452 173.962 175.408 172.135 176.006C171.434 176.228 170.734 176.433 170.034 176.655C169.983 176.655 169.932 176.689 169.88 176.706C168.975 176.928 168.309 177.457 167.899 178.243C167.848 178.345 167.763 178.448 167.678 178.584C167.541 178.379 167.438 178.209 167.336 178.038C166.977 177.406 166.414 176.979 165.697 176.757C164.86 176.501 164.04 176.245 163.22 175.989C161.257 175.357 159.634 174.264 158.422 172.676C158.132 172.3 157.841 171.924 157.551 171.532C157.346 171.276 157.158 171.019 156.953 170.763C156.578 170.302 156.202 170.217 155.587 170.61C155.365 170.746 155.177 170.968 154.921 171.19C155.28 169.704 155.604 168.27 155.314 166.716C156.595 167.638 158.046 168.048 159.566 168.441C159.429 168.492 159.361 168.526 159.276 168.543C159.139 168.595 158.985 168.646 158.849 168.714C158.422 168.919 158.251 169.26 158.285 169.722C158.337 170.251 158.49 170.763 158.763 171.241C159.259 172.164 159.976 172.898 160.796 173.547C161.923 174.418 163.169 175.049 164.604 175.34C165.014 175.425 165.423 175.459 165.833 175.494C166.465 175.528 166.96 175.135 167.063 174.537C167.097 174.366 167.097 174.196 167.097 174.025C167.097 169.278 167.097 164.53 167.097 159.8C167.097 159.68 167.097 159.578 167.097 159.424C166.943 159.424 166.841 159.424 166.738 159.424C165.594 159.424 164.433 159.424 163.289 159.424C163.084 159.424 162.947 159.476 162.776 159.595C162.332 159.954 161.82 160.022 161.274 159.8C160.796 159.612 160.522 159.202 160.574 158.775C160.625 158.366 161.001 157.99 161.479 157.887C161.991 157.785 162.452 157.87 162.845 158.212C162.913 158.263 163.016 158.314 163.101 158.314C164.416 158.314 165.714 158.314 167.063 158.314L167.114 158.366ZM167.712 154.216C167.148 154.216 166.653 154.694 166.67 155.206C166.67 155.684 167.148 156.129 167.678 156.111C168.292 156.111 168.702 155.685 168.702 155.155C168.702 154.626 168.258 154.199 167.712 154.199V154.216Z" fill="black"/>
<path d="M167.712 154.216C168.258 154.216 168.702 154.626 168.702 155.172C168.702 155.719 168.292 156.111 167.678 156.128C167.148 156.128 166.67 155.702 166.67 155.223C166.67 154.711 167.148 154.233 167.712 154.233V154.216Z" fill="#15395B"/>
<line x1="415.801" y1="4.60132e-08" x2="415.801" y2="332.64" stroke="#15395B" stroke-width="2.10532"/>
<path d="M875.812 90.8672V167.711H1224.24L1253.72 90.8672H875.812Z" fill="#027C8A"/>
<path d="M902.63 146.391V114.663H922.639V119.156H907.771V128.142H919.86V132.588H907.771V141.852H922.639V146.391H902.63ZM928.694 146.391V114.663H937.633L944.72 139.443L951.806 114.663H960.792V146.391H955.604V120.36H954.909L947.406 145.094H942.033L934.53 120.36H933.835V146.391H928.694ZM977.818 118.647C973.897 118.647 971.936 120.021 971.936 122.769C971.936 124.189 972.399 125.208 973.325 125.826C974.252 126.413 976.29 127.154 979.439 128.049C982.62 128.914 984.858 129.964 986.155 131.199C987.452 132.403 988.101 134.317 988.101 136.942C988.101 140.277 987.143 142.778 985.229 144.445C983.345 146.082 980.767 146.9 977.494 146.9C974.869 146.9 971.967 146.591 968.786 145.974L967.119 145.65L967.628 141.527C971.797 142.083 974.977 142.361 977.17 142.361C980.999 142.361 982.913 140.663 982.913 137.266C982.913 135.938 982.481 134.966 981.616 134.348C980.752 133.7 978.806 133.005 975.78 132.264C972.754 131.492 970.5 130.442 969.018 129.114C967.536 127.787 966.795 125.687 966.795 122.815C966.795 119.944 967.721 117.782 969.574 116.331C971.457 114.849 974.051 114.108 977.355 114.108C979.733 114.108 982.542 114.386 985.785 114.941L987.406 115.219L986.989 119.388C982.666 118.894 979.609 118.647 977.818 118.647ZM991.573 114.663H996.992L1001.53 141.944H1002.5L1008.52 114.756H1014.55L1020.57 141.944H1021.59L1026.13 114.663H1031.54L1025.29 146.391H1017L1011.54 120.963L1006.12 146.391H997.779L991.573 114.663ZM1036.78 146.391V114.663H1056.79V119.156H1041.93V128.142H1054.01V132.588H1041.93V141.852H1056.79V146.391H1036.78ZM1072.66 136.201V131.616H1086.5V136.201H1072.66ZM1104.09 146.391V114.663H1109.23V146.391H1104.09ZM1128.85 127.54H1122.45V137.729C1122.45 139.613 1122.59 140.863 1122.87 141.481C1123.15 142.099 1123.86 142.407 1125 142.407L1128.8 142.268L1129.03 146.298C1126.96 146.699 1125.39 146.9 1124.31 146.9C1121.68 146.9 1119.88 146.298 1118.89 145.094C1117.93 143.89 1117.45 141.62 1117.45 138.285V127.54H1114.49V123.232H1117.45V116.516H1122.45V123.232H1128.85V127.54ZM1150.59 130.365V140.925C1150.62 141.605 1150.79 142.114 1151.1 142.454C1151.44 142.762 1151.95 142.963 1152.63 143.056L1152.49 146.9C1149.83 146.9 1147.78 146.329 1146.33 145.186C1143.86 146.329 1141.37 146.9 1138.87 146.9C1134.27 146.9 1131.97 144.445 1131.97 139.536C1131.97 137.189 1132.59 135.491 1133.82 134.441C1135.09 133.391 1137.02 132.758 1139.61 132.542L1145.58 132.032V130.365C1145.58 129.13 1145.31 128.265 1144.75 127.771C1144.23 127.277 1143.44 127.03 1142.39 127.03C1140.41 127.03 1137.94 127.154 1134.98 127.401L1133.5 127.493L1133.31 123.927C1136.68 123.124 1139.76 122.723 1142.57 122.723C1145.42 122.723 1147.45 123.34 1148.69 124.575C1149.95 125.78 1150.59 127.709 1150.59 130.365ZM1140.21 136.108C1138.08 136.294 1137.02 137.451 1137.02 139.582C1137.02 141.713 1137.96 142.778 1139.84 142.778C1141.39 142.778 1143.02 142.531 1144.75 142.037L1145.58 141.759V135.599L1140.21 136.108ZM1157.67 146.391V113.598H1162.71V146.391H1157.67ZM1169.57 146.391V123.232H1174.61V146.391H1169.57ZM1169.57 119.295V113.969H1174.61V119.295H1169.57ZM1198.34 130.365V140.925C1198.37 141.605 1198.54 142.114 1198.85 142.454C1199.19 142.762 1199.7 142.963 1200.38 143.056L1200.24 146.9C1197.58 146.9 1195.53 146.329 1194.08 145.186C1191.61 146.329 1189.12 146.9 1186.62 146.9C1182.02 146.9 1179.72 144.445 1179.72 139.536C1179.72 137.189 1180.34 135.491 1181.57 134.441C1182.84 133.391 1184.77 132.758 1187.36 132.542L1193.34 132.032V130.365C1193.34 129.13 1193.06 128.265 1192.5 127.771C1191.98 127.277 1191.19 127.03 1190.14 127.03C1188.16 127.03 1185.69 127.154 1182.73 127.401L1181.25 127.493L1181.06 123.927C1184.43 123.124 1187.52 122.723 1190.33 122.723C1193.17 122.723 1195.2 123.34 1196.44 124.575C1197.71 125.78 1198.34 127.709 1198.34 130.365ZM1187.96 136.108C1185.83 136.294 1184.77 137.451 1184.77 139.582C1184.77 141.713 1185.71 142.778 1187.59 142.778C1189.14 142.778 1190.77 142.531 1192.5 142.037L1193.34 141.759V135.599L1187.96 136.108Z" fill="white"/>
<path d="M513.482 169.445V80.0324H538.805L565.955 156.653H567.913V80.0324H582.401V169.445H557.601L529.798 92.6938H527.971V169.445H513.482ZM650.87 124.282V154.043C650.957 155.957 651.436 157.393 652.306 158.35C653.263 159.22 654.699 159.786 656.614 160.047L656.222 170.881C648.738 170.881 642.952 169.271 638.862 166.052C631.9 169.271 624.895 170.881 617.846 170.881C604.88 170.881 598.397 163.963 598.397 150.127C598.397 143.513 600.138 138.727 603.619 135.769C607.186 132.81 612.625 131.026 619.935 130.417L636.773 128.981V124.282C636.773 120.801 635.99 118.365 634.424 116.972C632.944 115.58 630.725 114.884 627.767 114.884C622.197 114.884 615.236 115.232 606.882 115.928L602.705 116.189L602.183 106.138C611.668 103.876 620.37 102.745 628.289 102.745C636.295 102.745 642.038 104.485 645.519 107.966C649.087 111.36 650.87 116.798 650.87 124.282ZM621.632 140.468C615.627 140.99 612.625 144.253 612.625 150.257C612.625 156.262 615.279 159.264 620.588 159.264C624.939 159.264 629.551 158.568 634.424 157.176L636.773 156.392V139.032L621.632 140.468ZM663.265 104.18H678.145L690.676 157.306H694.853L707.906 104.18H722.395L705.426 169.445H680.103L663.265 104.18ZM734.822 169.445V104.18H749.05V169.445H734.822ZM734.822 93.0854V78.0745H749.05V93.0854H734.822ZM812.907 117.625C802.638 116.233 795.198 115.537 790.586 115.537C785.974 115.537 782.754 116.102 780.927 117.233C779.187 118.278 778.316 119.975 778.316 122.324C778.316 124.674 779.274 126.327 781.188 127.284C783.19 128.241 787.802 129.373 795.024 130.678C802.334 131.896 807.512 133.854 810.557 136.552C813.603 139.249 815.126 144.036 815.126 150.91C815.126 157.785 812.907 162.832 808.469 166.052C804.118 169.271 797.722 170.881 789.281 170.881C783.973 170.881 777.272 170.141 769.179 168.662L765.133 168.009L765.655 156.131C776.097 157.524 783.625 158.22 788.237 158.22C792.849 158.22 796.112 157.654 798.026 156.523C800.028 155.392 801.029 153.521 801.029 150.91C801.029 148.299 800.071 146.516 798.157 145.558C796.33 144.514 791.848 143.426 784.712 142.295C777.664 141.077 772.486 139.206 769.179 136.682C765.873 134.159 764.219 129.547 764.219 122.846C764.219 116.146 766.482 111.142 771.007 107.835C775.619 104.529 781.493 102.875 788.628 102.875C794.198 102.875 801.029 103.571 809.121 104.964L813.168 105.747L812.907 117.625Z" fill="#15395B"/>
<path d="M502.953 272.5V237.889H524.781V242.79H508.561V252.592H521.749V257.443H508.561V267.548H524.781V272.5H502.953ZM547.407 247.236H552.864V272.5H547.407V270.934C544.948 272.348 542.674 273.056 540.586 273.056C537.116 273.056 534.792 272.129 533.613 270.277C532.434 268.39 531.845 265.106 531.845 260.424V247.236H537.352V260.474C537.352 263.506 537.605 265.544 538.11 266.588C538.615 267.633 539.794 268.155 541.647 268.155C543.466 268.155 545.133 267.818 546.649 267.144L547.407 266.841V247.236ZM561.553 272.5V247.236H567.01V250.268C569.873 248.415 572.737 247.219 575.6 246.68V252.188C572.703 252.761 570.227 253.502 568.172 254.411L567.061 254.866V272.5H561.553ZM582.998 249.965C584.75 247.775 587.647 246.68 591.689 246.68C595.731 246.68 598.611 247.775 600.329 249.965C602.081 252.154 602.957 255.439 602.957 259.818C602.957 264.197 602.115 267.498 600.43 269.721C598.746 271.944 595.832 273.056 591.689 273.056C587.546 273.056 584.632 271.944 582.948 269.721C581.263 267.498 580.421 264.197 580.421 259.818C580.421 255.439 581.28 252.154 582.998 249.965ZM587.142 266.386C587.916 267.734 589.432 268.407 591.689 268.407C593.946 268.407 595.462 267.734 596.237 266.386C597.011 265.039 597.399 262.832 597.399 259.767C597.399 256.702 596.978 254.529 596.135 253.249C595.327 251.969 593.845 251.329 591.689 251.329C589.533 251.329 588.034 251.969 587.192 253.249C586.384 254.529 585.979 256.702 585.979 259.767C585.979 262.832 586.367 265.039 587.142 266.386ZM610.449 283.363V247.236H615.906V248.803C618.23 247.388 620.403 246.68 622.424 246.68C625.758 246.68 628.201 247.708 629.75 249.763C631.3 251.784 632.074 255.203 632.074 260.02C632.074 264.803 631.182 268.171 629.396 270.125C627.645 272.079 624.765 273.056 620.756 273.056C619.375 273.056 617.775 272.904 615.956 272.601V283.363H610.449ZM621.464 251.582C619.88 251.582 618.297 251.935 616.714 252.643L615.956 252.996V267.902C617.304 268.171 618.786 268.306 620.403 268.306C622.693 268.306 624.276 267.649 625.152 266.336C626.028 265.022 626.466 262.782 626.466 259.615C626.466 254.26 624.798 251.582 621.464 251.582ZM657.596 267.953L659.011 267.801L659.112 271.894C655.272 272.668 651.87 273.056 648.906 273.056C645.167 273.056 642.472 272.028 640.821 269.974C639.204 267.919 638.396 264.635 638.396 260.121C638.396 251.16 642.051 246.68 649.36 246.68C656.434 246.68 659.971 250.537 659.971 258.251L659.618 262.192H643.954C643.988 264.281 644.442 265.814 645.318 266.79C646.194 267.767 647.828 268.256 650.219 268.256C652.611 268.256 655.07 268.155 657.596 267.953ZM654.565 257.948C654.565 255.455 654.161 253.721 653.352 252.744C652.577 251.733 651.247 251.228 649.36 251.228C647.474 251.228 646.093 251.75 645.217 252.794C644.375 253.838 643.937 255.556 643.903 257.948H654.565ZM685.983 255.017V266.538C686.017 267.279 686.202 267.835 686.539 268.205C686.91 268.542 687.466 268.761 688.207 268.862L688.055 273.056C685.158 273.056 682.918 272.433 681.335 271.186C678.64 272.433 675.928 273.056 673.2 273.056C668.181 273.056 665.671 270.378 665.671 265.022C665.671 262.462 666.345 260.609 667.692 259.464C669.074 258.319 671.179 257.628 674.008 257.392L680.526 256.836V255.017C680.526 253.67 680.223 252.727 679.617 252.188C679.044 251.649 678.185 251.379 677.04 251.379C674.884 251.379 672.189 251.514 668.956 251.784L667.339 251.885L667.137 247.994C670.808 247.118 674.177 246.68 677.242 246.68C680.341 246.68 682.564 247.354 683.912 248.701C685.293 250.015 685.983 252.121 685.983 255.017ZM674.665 261.283C672.341 261.485 671.179 262.748 671.179 265.072C671.179 267.397 672.206 268.559 674.261 268.559C675.945 268.559 677.731 268.289 679.617 267.75L680.526 267.447V260.727L674.665 261.283ZM700.426 272.5H694.919V247.236H700.376V248.803C702.835 247.388 705.159 246.68 707.348 246.68C710.717 246.68 713.007 247.64 714.22 249.56C715.466 251.447 716.09 254.58 716.09 258.959V272.5H710.633V259.11C710.633 256.382 710.329 254.445 709.723 253.299C709.151 252.154 707.955 251.582 706.136 251.582C704.418 251.582 702.767 251.918 701.184 252.592L700.426 252.895V272.5ZM738.303 272.5V237.889H748.055L755.785 264.921L763.516 237.889H773.319V272.5H767.659V244.103H766.902L758.716 271.085H752.855L744.669 244.103H743.911V272.5H738.303ZM801.291 255.017V266.538C801.325 267.279 801.51 267.835 801.847 268.205C802.217 268.542 802.773 268.761 803.514 268.862L803.363 273.056C800.466 273.056 798.226 272.433 796.643 271.186C793.948 272.433 791.236 273.056 788.508 273.056C783.489 273.056 780.979 270.378 780.979 265.022C780.979 262.462 781.653 260.609 783 259.464C784.381 258.319 786.486 257.628 789.316 257.392L795.834 256.836V255.017C795.834 253.67 795.531 252.727 794.925 252.188C794.352 251.649 793.493 251.379 792.348 251.379C790.192 251.379 787.497 251.514 784.263 251.784L782.646 251.885L782.444 247.994C786.116 247.118 789.484 246.68 792.55 246.68C795.649 246.68 797.872 247.354 799.219 248.701C800.601 250.015 801.291 252.121 801.291 255.017ZM789.973 261.283C787.649 261.485 786.486 262.748 786.486 265.072C786.486 267.397 787.514 268.559 789.569 268.559C791.253 268.559 793.038 268.289 794.925 267.75L795.834 267.447V260.727L789.973 261.283ZM810.226 272.5V247.236H815.683V250.268C818.546 248.415 821.41 247.219 824.273 246.68V252.188C821.376 252.761 818.9 253.502 816.845 254.411L815.734 254.866V272.5H810.226ZM830.504 272.5V247.236H836.012V272.5H830.504ZM830.504 242.941V237.131H836.012V242.941H830.504ZM858.305 251.935H851.332V263.051C851.332 265.106 851.484 266.47 851.787 267.144C852.09 267.818 852.865 268.155 854.111 268.155L858.255 268.003L858.507 272.399C856.25 272.837 854.532 273.056 853.353 273.056C850.49 273.056 848.52 272.399 847.442 271.085C846.398 269.772 845.875 267.296 845.875 263.658V251.935H842.642V247.236H845.875V239.91H851.332V247.236H858.305V251.935ZM864.843 272.5V247.236H870.351V272.5H864.843ZM864.843 242.941V237.131H870.351V242.941H864.843ZM884.56 272.5H879.052V247.236H884.509V248.803C886.901 247.388 889.09 246.68 891.078 246.68C894.009 246.68 896.148 247.506 897.495 249.156C900.56 247.506 903.609 246.68 906.64 246.68C909.672 246.68 911.811 247.624 913.057 249.51C914.304 251.363 914.927 254.512 914.927 258.959V272.5H909.47V259.11C909.47 256.382 909.184 254.445 908.611 253.299C908.072 252.154 906.927 251.582 905.175 251.582C903.659 251.582 902.026 251.918 900.274 252.592L899.415 252.946C899.684 253.62 899.819 255.775 899.819 259.413V272.5H894.362V259.514C894.362 256.516 894.093 254.445 893.554 253.299C893.015 252.154 891.836 251.582 890.017 251.582C888.333 251.582 886.766 251.918 885.318 252.592L884.56 252.895V272.5ZM941.398 267.953L942.813 267.801L942.914 271.894C939.074 272.668 935.671 273.056 932.707 273.056C928.968 273.056 926.273 272.028 924.623 269.974C923.006 267.919 922.197 264.635 922.197 260.121C922.197 251.16 925.852 246.68 933.162 246.68C940.236 246.68 943.773 250.537 943.773 258.251L943.419 262.192H927.755C927.789 264.281 928.244 265.814 929.12 266.79C929.996 267.767 931.629 268.256 934.021 268.256C936.413 268.256 938.872 268.155 941.398 267.953ZM938.366 257.948C938.366 255.455 937.962 253.721 937.154 252.744C936.379 251.733 935.048 251.228 933.162 251.228C931.276 251.228 929.894 251.75 929.019 252.794C928.177 253.838 927.739 255.556 927.705 257.948H938.366ZM975.026 242.234C970.748 242.234 968.609 243.733 968.609 246.731C968.609 248.28 969.114 249.392 970.125 250.066C971.135 250.706 973.359 251.514 976.795 252.491C980.264 253.434 982.706 254.58 984.121 255.927C985.536 257.241 986.243 259.329 986.243 262.192C986.243 265.83 985.199 268.559 983.11 270.378C981.056 272.163 978.243 273.056 974.672 273.056C971.809 273.056 968.643 272.719 965.173 272.045L963.354 271.692L963.91 267.195C968.457 267.801 971.927 268.104 974.319 268.104C978.496 268.104 980.584 266.251 980.584 262.546C980.584 261.098 980.112 260.037 979.169 259.363C978.226 258.655 976.104 257.898 972.803 257.089C969.502 256.247 967.043 255.102 965.426 253.653C963.809 252.205 963 249.914 963 246.781C963 243.649 964.011 241.291 966.032 239.708C968.087 238.091 970.916 237.282 974.521 237.282C977.115 237.282 980.18 237.585 983.717 238.192L985.485 238.495L985.031 243.042C980.315 242.503 976.98 242.234 975.026 242.234ZM993.669 272.5V247.236H999.177V272.5H993.669ZM993.669 242.941V237.131H999.177V242.941H993.669ZM1013.39 272.5H1007.88V247.236H1013.34V248.803C1015.79 247.388 1018.12 246.68 1020.31 246.68C1023.68 246.68 1025.97 247.64 1027.18 249.56C1028.43 251.447 1029.05 254.58 1029.05 258.959V272.5H1023.59V259.11C1023.59 256.382 1023.29 254.445 1022.68 253.299C1022.11 252.154 1020.91 251.582 1019.1 251.582C1017.38 251.582 1015.73 251.918 1014.14 252.592L1013.39 252.895V272.5ZM1059.56 275.936C1059.56 281.46 1055.57 284.222 1047.59 284.222C1043.75 284.222 1040.9 283.7 1039.05 282.656C1037.2 281.612 1036.27 279.709 1036.27 276.946C1036.27 275.7 1036.57 274.622 1037.18 273.713C1037.79 272.837 1038.76 271.877 1040.11 270.833C1039 270.092 1038.44 268.862 1038.44 267.144C1038.44 266.47 1038.9 265.376 1039.81 263.86L1040.26 263.102C1037.84 261.653 1036.62 259.127 1036.62 255.523C1036.62 252.491 1037.53 250.268 1039.35 248.853C1041.17 247.438 1043.63 246.731 1046.73 246.731C1048.21 246.731 1049.68 246.899 1051.12 247.236L1051.88 247.388L1059.71 247.186V251.632L1055.52 251.379C1056.43 252.558 1056.88 253.94 1056.88 255.523C1056.88 258.824 1056.04 261.114 1054.36 262.394C1052.71 263.641 1050.11 264.264 1046.58 264.264C1045.7 264.264 1044.96 264.197 1044.35 264.062C1043.88 265.207 1043.65 266.1 1043.65 266.74C1043.65 267.346 1043.95 267.767 1044.56 268.003C1045.2 268.239 1046.71 268.374 1049.1 268.407C1053.11 268.441 1055.86 268.98 1057.34 270.024C1058.82 271.068 1059.56 273.039 1059.56 275.936ZM1041.68 276.441C1041.68 277.62 1042.15 278.462 1043.09 278.968C1044.03 279.473 1045.65 279.725 1047.94 279.725C1052.02 279.725 1054.06 278.563 1054.06 276.239C1054.06 274.925 1053.68 274.083 1052.94 273.713C1052.24 273.376 1050.8 273.191 1048.65 273.157L1043.7 272.854C1042.96 273.46 1042.43 274.016 1042.13 274.521C1041.83 275.06 1041.68 275.7 1041.68 276.441ZM1042.08 255.523C1042.08 257.072 1042.45 258.218 1043.19 258.959C1043.93 259.666 1045.13 260.02 1046.78 260.02C1048.43 260.02 1049.61 259.666 1050.32 258.959C1051.06 258.218 1051.43 257.072 1051.43 255.523C1051.43 253.973 1051.06 252.845 1050.32 252.137C1049.58 251.396 1048.38 251.026 1046.73 251.026C1043.63 251.026 1042.08 252.525 1042.08 255.523ZM1066.35 272.5V236.726H1071.86V272.5H1066.35ZM1098.84 267.953L1100.25 267.801L1100.35 271.894C1096.51 272.668 1093.11 273.056 1090.15 273.056C1086.41 273.056 1083.71 272.028 1082.06 269.974C1080.45 267.919 1079.64 264.635 1079.64 260.121C1079.64 251.16 1083.29 246.68 1090.6 246.68C1097.68 246.68 1101.21 250.537 1101.21 258.251L1100.86 262.192H1085.2C1085.23 264.281 1085.68 265.814 1086.56 266.79C1087.44 267.767 1089.07 268.256 1091.46 268.256C1093.85 268.256 1096.31 268.155 1098.84 267.953ZM1095.81 257.948C1095.81 255.455 1095.4 253.721 1094.59 252.744C1093.82 251.733 1092.49 251.228 1090.6 251.228C1088.72 251.228 1087.34 251.75 1086.46 252.794C1085.62 253.838 1085.18 255.556 1085.15 257.948H1095.81ZM1119.53 237.889H1125.44L1130.4 267.649H1131.46L1138.03 237.99H1144.59L1151.16 267.649H1152.27L1157.23 237.889H1163.14L1156.32 272.5H1147.27L1141.31 244.76L1135.4 272.5H1126.3L1119.53 237.889ZM1169.71 272.5V247.236H1175.22V272.5H1169.71ZM1169.71 242.941V237.131H1175.22V242.941H1169.71ZM1189.43 272.5H1183.92V247.236H1189.38V248.803C1191.84 247.388 1194.16 246.68 1196.35 246.68C1199.72 246.68 1202.01 247.64 1203.22 249.56C1204.47 251.447 1205.09 254.58 1205.09 258.959V272.5H1199.64V259.11C1199.64 256.382 1199.33 254.445 1198.73 253.299C1198.15 252.154 1196.96 251.582 1195.14 251.582C1193.42 251.582 1191.77 251.918 1190.19 252.592L1189.43 252.895V272.5ZM1234.14 236.726V272.5H1228.68V271.186C1226.22 272.433 1223.97 273.056 1221.91 273.056C1218.61 273.056 1216.19 272.062 1214.64 270.075C1213.12 268.087 1212.36 264.752 1212.36 260.07C1212.36 255.388 1213.21 251.986 1214.89 249.864C1216.61 247.741 1219.27 246.68 1222.87 246.68C1224.09 246.68 1226.01 246.899 1228.63 247.337V236.726H1234.14ZM1227.77 267.245L1228.63 266.891V251.935C1226.61 251.598 1224.74 251.43 1223.02 251.43C1219.62 251.43 1217.92 254.26 1217.92 259.919C1217.92 263.018 1218.31 265.173 1219.08 266.386C1219.89 267.565 1221.16 268.155 1222.87 268.155C1224.59 268.155 1226.22 267.851 1227.77 267.245ZM1244.2 249.965C1245.95 247.775 1248.85 246.68 1252.89 246.68C1256.93 246.68 1259.81 247.775 1261.53 249.965C1263.28 252.154 1264.16 255.439 1264.16 259.818C1264.16 264.197 1263.31 267.498 1261.63 269.721C1259.95 271.944 1257.03 273.056 1252.89 273.056C1248.75 273.056 1245.83 271.944 1244.15 269.721C1242.46 267.498 1241.62 264.197 1241.62 259.818C1241.62 255.439 1242.48 252.154 1244.2 249.965ZM1248.34 266.386C1249.12 267.734 1250.63 268.407 1252.89 268.407C1255.15 268.407 1256.66 267.734 1257.44 266.386C1258.21 265.039 1258.6 262.832 1258.6 259.767C1258.6 256.702 1258.18 254.529 1257.33 253.249C1256.53 251.969 1255.04 251.329 1252.89 251.329C1250.73 251.329 1249.23 251.969 1248.39 253.249C1247.58 254.529 1247.18 256.702 1247.18 259.767C1247.18 262.832 1247.57 265.039 1248.34 266.386ZM1269.68 247.236H1275.08L1279.08 267.801H1280.09L1284.89 247.741H1290.55L1295.35 267.801H1296.36L1300.3 247.236H1305.75L1300.4 272.5H1291.66L1287.72 255.169L1283.77 272.5H1275.03L1269.68 247.236ZM1343.56 267.953L1344.98 267.801L1345.08 271.894C1341.24 272.668 1337.84 273.056 1334.87 273.056C1331.13 273.056 1328.44 272.028 1326.79 269.974C1325.17 267.919 1324.36 264.635 1324.36 260.121C1324.36 251.16 1328.02 246.68 1335.33 246.68C1342.4 246.68 1345.94 250.537 1345.94 258.251L1345.59 262.192H1329.92C1329.96 264.281 1330.41 265.814 1331.29 266.79C1332.16 267.767 1333.8 268.256 1336.19 268.256C1338.58 268.256 1341.04 268.155 1343.56 267.953ZM1340.53 257.948C1340.53 255.455 1340.13 253.721 1339.32 252.744C1338.55 251.733 1337.21 251.228 1335.33 251.228C1333.44 251.228 1332.06 251.75 1331.19 252.794C1330.34 253.838 1329.91 255.556 1329.87 257.948H1340.53ZM1358.76 272.5H1353.26V247.236H1358.71V248.803C1361.17 247.388 1363.5 246.68 1365.69 246.68C1369.05 246.68 1371.35 247.64 1372.56 249.56C1373.8 251.447 1374.43 254.58 1374.43 258.959V272.5H1368.97V259.11C1368.97 256.382 1368.67 254.445 1368.06 253.299C1367.49 252.154 1366.29 251.582 1364.47 251.582C1362.76 251.582 1361.1 251.918 1359.52 252.592L1358.76 252.895V272.5ZM1380.24 247.236H1386L1390.85 267.801H1392.47L1397.52 247.236H1403.13L1396.56 272.5H1386.76L1380.24 247.236ZM1409.45 272.5V247.236H1414.96V272.5H1409.45ZM1409.45 242.941V237.131H1414.96V242.941H1409.45ZM1423.66 272.5V247.236H1429.12V250.268C1431.98 248.415 1434.85 247.219 1437.71 246.68V252.188C1434.81 252.761 1432.34 253.502 1430.28 254.411L1429.17 254.866V272.5H1423.66ZM1445.11 249.965C1446.86 247.775 1449.76 246.68 1453.8 246.68C1457.84 246.68 1460.72 247.775 1462.44 249.965C1464.19 252.154 1465.07 255.439 1465.07 259.818C1465.07 264.197 1464.22 267.498 1462.54 269.721C1460.86 271.944 1457.94 273.056 1453.8 273.056C1449.66 273.056 1446.74 271.944 1445.06 269.721C1443.37 267.498 1442.53 264.197 1442.53 259.818C1442.53 255.439 1443.39 252.154 1445.11 249.965ZM1449.25 266.386C1450.03 267.734 1451.54 268.407 1453.8 268.407C1456.06 268.407 1457.57 267.734 1458.35 266.386C1459.12 265.039 1459.51 262.832 1459.51 259.767C1459.51 256.702 1459.09 254.529 1458.25 253.249C1457.44 251.969 1455.95 251.329 1453.8 251.329C1451.64 251.329 1450.14 251.969 1449.3 253.249C1448.49 254.529 1448.09 256.702 1448.09 259.767C1448.09 262.832 1448.48 265.039 1449.25 266.386ZM1478.07 272.5H1472.56V247.236H1478.02V248.803C1480.47 247.388 1482.8 246.68 1484.99 246.68C1488.36 246.68 1490.65 247.64 1491.86 249.56C1493.11 251.447 1493.73 254.58 1493.73 258.959V272.5H1488.27V259.11C1488.27 256.382 1487.97 254.445 1487.36 253.299C1486.79 252.154 1485.59 251.582 1483.78 251.582C1482.06 251.582 1480.41 251.918 1478.82 252.592L1478.07 252.895V272.5ZM1507.67 272.5H1502.16V247.236H1507.62V248.803C1510.01 247.388 1512.2 246.68 1514.19 246.68C1517.12 246.68 1519.26 247.506 1520.61 249.156C1523.67 247.506 1526.72 246.68 1529.75 246.68C1532.78 246.68 1534.92 247.624 1536.17 249.51C1537.41 251.363 1538.04 254.512 1538.04 258.959V272.5H1532.58V259.11C1532.58 256.382 1532.29 254.445 1531.72 253.299C1531.18 252.154 1530.04 251.582 1528.29 251.582C1526.77 251.582 1525.14 251.918 1523.38 252.592L1522.53 252.946C1522.79 253.62 1522.93 255.775 1522.93 259.413V272.5H1517.47V259.514C1517.47 256.516 1517.2 254.445 1516.66 253.299C1516.13 252.154 1514.95 251.582 1513.13 251.582C1511.44 251.582 1509.88 251.918 1508.43 252.592L1507.67 252.895V272.5ZM1564.51 267.953L1565.92 267.801L1566.02 271.894C1562.18 272.668 1558.78 273.056 1555.82 273.056C1552.08 273.056 1549.38 272.028 1547.73 269.974C1546.12 267.919 1545.31 264.635 1545.31 260.121C1545.31 251.16 1548.96 246.68 1556.27 246.68C1563.35 246.68 1566.88 250.537 1566.88 258.251L1566.53 262.192H1550.87C1550.9 264.281 1551.35 265.814 1552.23 266.79C1553.11 267.767 1554.74 268.256 1557.13 268.256C1559.52 268.256 1561.98 268.155 1564.51 267.953ZM1561.48 257.948C1561.48 255.455 1561.07 253.721 1560.26 252.744C1559.49 251.733 1558.16 251.228 1556.27 251.228C1554.39 251.228 1553 251.75 1552.13 252.794C1551.29 253.838 1550.85 255.556 1550.82 257.948H1561.48ZM1579.71 272.5H1574.2V247.236H1579.66V248.803C1582.12 247.388 1584.44 246.68 1586.63 246.68C1590 246.68 1592.29 247.64 1593.5 249.56C1594.75 251.447 1595.37 254.58 1595.37 258.959V272.5H1589.91V259.11C1589.91 256.382 1589.61 254.445 1589 253.299C1588.43 252.154 1587.24 251.582 1585.42 251.582C1583.7 251.582 1582.05 251.918 1580.47 252.592L1579.71 252.895V272.5ZM1617.4 251.935H1610.42V263.051C1610.42 265.106 1610.57 266.47 1610.88 267.144C1611.18 267.818 1611.96 268.155 1613.2 268.155L1617.35 268.003L1617.6 272.399C1615.34 272.837 1613.62 273.056 1612.44 273.056C1609.58 273.056 1607.61 272.399 1606.53 271.085C1605.49 269.772 1604.97 267.296 1604.97 263.658V251.935H1601.73V247.236H1604.97V239.91H1610.42V247.236H1617.4V251.935Z" fill="#15395B"/>
</svg>
