<svg width="2698" height="338" viewBox="0 0 2698 338" fill="none" xmlns="http://www.w3.org/2000/svg">
<path d="M26.931 232.359C32.5834 229.422 38.8164 231.352 41.6852 236.85C43.8198 240.949 43.1197 245.149 40.8485 247.609L37.3478 244.996C38.8334 243.374 39.3116 241 38.1162 238.712C36.3744 235.347 32.6687 234.391 28.9802 236.321C25.2574 238.251 23.9767 241.939 25.7185 245.286C27.0676 247.882 29.8511 249.436 32.498 248.07L32.5492 248.035L29.9194 242.964L33.2323 241.239L37.9113 250.255L35.8962 251.297C29.6803 254.525 24.4207 251.485 22.1495 247.13C19.3147 241.683 21.2956 235.279 26.9139 232.359H26.931Z" fill="white"/>
<path d="M38.3895 258.76L49.1307 250.512L51.8459 254.029L41.3438 262.107C39.3116 263.661 38.9189 266.256 40.4387 268.22C41.9585 270.201 44.5713 270.474 46.5863 268.92L57.0885 260.843L59.8037 264.361L49.0624 272.609C45.3397 275.478 40.3192 274.658 37.2453 270.662C34.1715 266.666 34.6668 261.611 38.3895 258.743V258.76Z" fill="white"/>
<path d="M67.9151 272.643L72.2355 276.69L62.8945 297.251L59.3597 293.938L61.2893 289.771L55.5686 284.409L51.5385 286.612L48.0207 283.316L67.9151 272.66V272.643ZM63.0312 286.082L66.7197 278.244L59.1206 282.411L63.0312 286.082Z" fill="white"/>
<path d="M81.6618 284.699L88.4413 289.259C92.1128 291.718 93.4277 295.423 90.9345 299.146C89.3122 301.571 86.9727 302.493 84.5136 302.083L83.8135 311.868L79.6639 309.085L80.3811 300.239L77.7683 298.48L73.4479 304.918L69.7593 302.442L81.6618 284.699ZM83.045 297.37C84.599 298.412 86.2725 298.122 87.2459 296.67C88.2364 295.201 87.8607 293.528 86.3238 292.486L83.1987 290.386L79.92 295.27L83.045 297.37Z" fill="white"/>
<path d="M100.241 296.585L106.594 299.471C112.912 302.339 115.098 308.265 112.537 313.9C109.975 319.536 104.032 321.79 97.7311 318.921L91.3785 316.035L100.224 296.585H100.241ZM99.4388 315.454C103.23 317.179 106.765 315.847 108.472 312.073C110.197 308.282 108.865 304.781 105.074 303.057L102.666 301.964L97.0139 314.361L99.4217 315.454H99.4388Z" fill="white"/>
<path d="M122.646 305.857L126.898 307.172L120.563 327.596L116.311 326.281L122.646 305.857Z" fill="white"/>
<path d="M139.04 310.178L144.863 311.202L148.278 333.504L143.497 332.668L142.848 328.125L135.129 326.759L132.96 330.806L128.213 329.97L139.04 310.178ZM142.284 324.095L141.089 315.523L137.008 323.156L142.284 324.078V324.095Z" fill="white"/>
<path d="M169.436 323.805C168.924 317.452 173.125 312.466 179.289 311.954C183.9 311.578 187.503 313.849 188.87 316.906L185.113 319.109C184.208 317.111 182.193 315.745 179.614 315.95C175.84 316.257 173.535 319.297 173.859 323.429C174.201 327.596 176.967 330.226 180.741 329.918C183.32 329.713 185.078 328.04 185.659 325.922L189.723 327.493C188.87 330.721 185.659 333.556 181.065 333.914C174.952 334.41 169.931 330.089 169.419 323.788L169.436 323.805Z" fill="white"/>
<path d="M196.349 321.073C194.676 315.01 198.091 309.17 204.341 307.445C210.591 305.721 216.517 308.999 218.19 315.045C219.864 321.107 216.431 326.981 210.215 328.706C204 330.431 198.023 327.135 196.349 321.073ZM213.904 316.223C212.811 312.244 209.174 310.263 205.4 311.305C201.643 312.346 199.525 315.898 200.635 319.877C201.728 323.856 205.383 325.854 209.14 324.812C212.896 323.771 214.997 320.185 213.904 316.206V316.223Z" fill="white"/>
<path d="M226.831 316.889L229.41 313.849C231.391 315.523 233.798 315.915 235.882 314.925C237.521 314.139 238.187 312.842 237.589 311.595C237.163 310.69 236.309 310.331 234.96 310.502L230.588 311.066C227.019 311.527 224.577 310.4 223.347 307.821C221.725 304.423 223.313 300.768 227.275 298.873C230.742 297.216 234.464 297.729 236.992 300.239L234.43 303.279C232.859 301.844 230.81 301.486 228.932 302.374C227.292 303.159 226.626 304.525 227.207 305.772C227.634 306.677 228.556 307.07 229.905 306.899L234.174 306.318C237.76 305.84 240.151 306.899 241.38 309.495C243.003 312.893 241.312 316.616 237.248 318.562C233.594 320.304 229.495 319.724 226.78 316.906L226.831 316.889Z" fill="white"/>
<path d="M245.479 293.545L240.971 296.55L238.819 293.323L251.473 284.87L253.624 288.097L249.185 291.069L258.918 305.635L255.213 308.111L245.479 293.545Z" fill="white"/>
<path d="M255.554 281.472L258.97 278.62L272.682 295.031L269.267 297.882L255.554 281.472Z" fill="white"/>
<path d="M264.178 274.095L274.134 263.729L276.934 266.41L270.052 273.565L273.553 276.929L280.025 270.184L282.826 272.865L276.337 279.61L279.871 283.009L286.753 275.853L289.554 278.534L279.598 288.9L264.178 274.095Z" fill="white"/>
<path d="M277.651 259.477L282.382 252.817C284.943 249.214 288.683 248.001 292.337 250.597C294.728 252.288 295.565 254.661 295.104 257.103L304.872 258.059L301.986 262.124L293.157 261.167L291.33 263.746L297.648 268.237L295.07 271.858L277.651 259.477ZM290.356 258.452C291.432 256.932 291.193 255.242 289.776 254.234C288.324 253.21 286.651 253.534 285.575 255.054L283.406 258.111L288.205 261.526L290.391 258.469L290.356 258.452Z" fill="white"/>
<path d="M292.559 236.082L295.155 230.771L317.526 233.674L315.391 238.029L310.849 237.397L307.399 244.432L310.678 247.643L308.56 251.98L292.542 236.099L292.559 236.082ZM306.836 236.816L298.263 235.587L304.479 241.632L306.836 236.816Z" fill="white"/>
<path d="M25.1891 116.732C19.9295 114.888 17.4192 109.765 19.2123 104.642C20.5443 100.834 23.6352 98.7506 26.5724 98.7336L26.9993 102.525C25.0867 102.542 23.2766 103.669 22.5252 105.803C21.4323 108.928 23.0375 111.866 26.4699 113.061C29.9194 114.273 33.0103 112.976 34.1032 109.851C34.8546 107.716 34.1374 105.718 32.6517 104.505L35.3498 101.807C37.6381 103.635 38.7481 107.204 37.4161 111.012C35.6401 116.084 30.4146 118.56 25.1891 116.732Z" fill="white"/>
<path d="M28.1264 84.9355L30.6025 80.3931L50.0529 83.7743L48.0208 87.4971L44.0761 86.7798L40.7973 92.7908L43.5467 95.711L41.5316 99.4166L28.1264 84.9355ZM40.5753 86.1138L33.1299 84.7306L38.3212 90.2464L40.5583 86.1309L40.5753 86.1138Z" fill="white"/>
<path d="M38.1162 68.2174L42.4537 62.4967C44.7932 59.4229 48.0891 58.4496 51.2141 60.8232C54.2708 63.1457 54.2538 66.6464 51.9655 69.686L49.9846 72.3159L55.3808 76.3972L53.0413 79.5052L38.1333 68.2345L38.1162 68.2174ZM49.2673 67.6198C50.2578 66.3219 50.087 64.8363 48.8575 63.9141C47.6109 62.9749 46.1423 63.214 45.1689 64.5118L43.171 67.1587L47.2694 70.2666L49.2673 67.6198Z" fill="white"/>
<path d="M51.8288 51.2773L54.5098 48.4426L68.1029 61.3014L65.4219 64.1361L51.8288 51.2773Z" fill="white"/>
<path d="M65.5244 42.6194L61.9383 45.7103L59.7183 43.1488L69.7936 34.4568L72.0136 37.0183L68.4787 40.075L78.4686 51.6701L75.5143 54.2145L65.5244 42.6194Z" fill="white"/>
<path d="M79.1175 27.8139L83.4379 24.9792L98.9606 37.172L95.4087 39.4944L92.2665 36.9841L86.5288 40.741L87.5704 44.6174L84.0356 46.9228L79.1004 27.8139H79.1175ZM89.5172 34.73L83.6257 29.9827L85.5895 37.3086L89.5172 34.7471V34.73Z" fill="white"/>
<path d="M95.9209 17.7216L98.6532 16.5091L110.88 23.2203L106.338 13.0767L109.89 11.4886L117.523 28.5482L114.774 29.7777L102.461 22.8275L107.106 33.2102L103.554 34.7983L95.9209 17.7387V17.7216Z" fill="white"/>
<path d="M118.718 8.41475L130.826 4.99941L131.748 8.26106L123.397 10.6177L124.542 14.699L132.414 12.479L133.336 15.7407L125.464 17.9606L126.625 22.0932L134.975 19.7366L135.898 22.9983L123.79 26.4136L118.718 8.41475Z" fill="white"/>
<path d="M138.766 3.37713L145.853 2.42083C149.678 1.90853 152.701 3.58205 153.23 7.45846C153.572 10.0029 152.564 11.9496 150.72 13.1109L155.946 19.9245L151.608 20.5051L146.946 14.2892L144.214 14.6648L145.119 21.376L141.26 21.9054L138.749 3.36005L138.766 3.37713ZM147.032 10.8738C148.654 10.6518 149.576 9.49059 149.371 7.97077C149.166 6.43386 147.954 5.54587 146.331 5.76787L143.07 6.21186L143.753 11.3178L147.015 10.8738H147.032Z" fill="white"/>
<path d="M160.966 1.14007L164.86 1.05469L165.287 19.7537L161.393 19.8391L160.966 1.14007Z" fill="white"/>
<path d="M173.671 1.10592L186.206 2.13052L185.932 5.51171L177.274 4.81157L176.933 9.04659L185.096 9.71259L184.822 13.0938L176.66 12.4278L176.318 16.697L184.976 17.3971L184.703 20.7783L172.169 19.7537L173.671 1.10592Z" fill="white"/>
<path d="M207.517 6.31432L213.323 8.19276C219.095 10.0712 221.589 14.9893 219.915 20.1465C218.242 25.3036 213.306 27.8481 207.552 25.9696L201.745 24.0912L207.517 6.31432ZM208.696 22.7763C212.162 23.9034 215.099 22.4006 216.227 18.934C217.354 15.4674 215.834 12.5644 212.384 11.4373L210.181 10.7201L206.51 22.0591L208.713 22.7763H208.696Z" fill="white"/>
<path d="M230.264 14.6136L233.798 16.253L225.943 33.2272L222.408 31.5879L230.264 14.6136Z" fill="white"/>
<path d="M253.283 27.1992L259.089 31.4342C262.214 33.7054 263.222 37.0012 260.916 40.1604C258.645 43.2683 255.144 43.3025 252.053 41.0654L249.407 39.1187L245.411 44.6003L242.268 42.3121L253.3 27.2162L253.283 27.1992ZM254.068 38.3332C255.383 39.2895 256.869 39.1016 257.774 37.8721C258.696 36.6084 258.423 35.1398 257.108 34.1835L254.427 32.2368L251.387 36.3864L254.068 38.3332Z" fill="white"/>
<path d="M264.076 47.0594C267.986 43.2001 273.912 43.3196 277.891 47.3497C281.869 51.3969 281.904 57.3225 277.976 61.1818C274.065 65.0412 268.106 64.9216 264.144 60.9086C260.182 56.8785 260.148 50.9187 264.076 47.0594ZM275.261 58.3983C277.839 55.8539 277.788 52.2336 275.397 49.8087C273.007 47.3839 269.386 47.2814 266.808 49.8087C264.229 52.3532 264.263 55.9905 266.654 58.4154C269.045 60.8403 272.682 60.9257 275.261 58.3813V58.3983Z" fill="white"/>
<path d="M290.237 61.7112L294.37 67.5515C296.607 70.7107 296.521 74.1602 293.311 76.4143C291.228 77.9 289.025 77.917 287.129 76.8071L283.509 84.594L280.981 81.025L284.328 74.0235L282.74 71.7694L277.208 75.68L274.953 72.5037L290.237 61.7112ZM287.419 72.4866C288.359 73.8186 289.827 74.1089 291.074 73.2209C292.337 72.3159 292.559 70.8473 291.62 69.5153L289.725 66.8342L285.524 69.8056L287.419 72.4866Z" fill="white"/>
<path d="M300.961 84.6282L298.758 80.4273L301.764 78.8562L307.946 90.6392L304.94 92.2102L302.771 88.0777L289.212 95.1816L287.402 91.7321L300.961 84.6282Z" fill="white"/>
<path d="M302.003 99.7923C307.194 97.9993 312.488 100.646 314.349 106.008C316.211 111.37 313.683 116.732 308.492 118.525C303.301 120.319 297.973 117.655 296.129 112.327C294.284 106.999 296.829 101.602 302.02 99.8094L302.003 99.7923ZM307.228 114.837C310.644 113.659 312.164 110.363 311.036 107.135C309.927 103.908 306.699 102.268 303.284 103.447C299.868 104.625 298.331 107.921 299.441 111.148C300.551 114.376 303.813 116.015 307.228 114.82V114.837Z" fill="white"/>
<path d="M245.069 222.523C258.252 200.152 251.934 168.492 251.917 168.407H251.9L244.437 138.198C244.198 137.225 242.866 137.071 242.405 137.959L224.201 173.513C223.774 174.349 224.526 175.289 225.431 175.067L233.406 173.086C237.419 196.378 229.102 208.452 229.102 208.452L181.954 163.915L213.187 130.855C215.629 128.276 219.727 128.225 222.221 130.752L231.288 139.991L243.72 127.73L229.017 113.232C230.861 113.846 232.808 114.256 234.857 114.256C245.12 114.256 253.437 105.94 253.437 95.6769C253.437 85.4137 245.12 77.0974 234.857 77.0974C224.594 77.0974 216.278 85.4137 216.278 95.6769C216.278 97.6578 216.671 99.5191 217.234 101.295L202.429 86.3017L190.167 98.7336L199.508 107.904C202.036 110.397 201.985 114.495 199.406 116.937L165.799 148.683L132.192 116.937C129.613 114.495 129.562 110.397 132.09 107.904L141.431 98.7336L129.169 86.3017L114.364 101.295C114.927 99.5191 115.32 97.6407 115.32 95.6769C115.32 85.4137 107.004 77.0974 96.7407 77.0974C86.4776 77.0974 78.1612 85.4137 78.1612 95.6769C78.1612 105.94 86.4776 114.256 96.7407 114.256C98.7899 114.256 100.737 113.846 102.581 113.232L87.8779 127.73L100.31 139.991L109.377 130.752C111.871 128.225 115.969 128.259 118.411 130.855L149.644 163.915L102.496 208.452C102.496 208.452 94.1792 196.378 98.1922 173.086L106.167 175.067C107.072 175.289 107.824 174.349 107.397 173.513L89.1928 137.959C88.7317 137.071 87.4168 137.207 87.1607 138.198L79.6981 168.407H79.6811C79.664 168.492 73.3456 200.152 86.5288 222.523C88.134 225.255 89.227 228.295 89.6539 231.403C90.0637 234.408 88.783 236.816 87.5705 239.582C86.6313 241.734 85.7604 243.391 86.3068 243.835L86.2215 243.92C86.6484 244.501 88.3219 243.613 90.4906 242.673C93.2741 241.461 95.682 240.18 98.6704 240.59C101.778 241.017 104.818 242.11 107.55 243.715C129.921 256.898 161.581 250.58 161.666 250.563C161.666 250.563 161.462 249.726 161.137 248.394H161.171L161.701 250.546L165.782 249.538L169.863 250.546L170.393 248.394H170.427C170.102 249.709 169.897 250.546 169.897 250.546C169.983 250.563 201.643 256.881 224.014 243.698C226.746 242.076 229.785 241 232.893 240.573C235.899 240.163 238.307 241.444 241.073 242.656C243.242 243.595 244.915 244.501 245.342 243.903L245.257 243.817C245.821 243.373 244.933 241.717 243.993 239.565C242.781 236.782 241.5 234.374 241.91 231.386C242.337 228.278 243.43 225.238 245.035 222.506L245.069 222.523ZM234.857 87.4117C239.417 87.4117 243.122 91.1174 243.122 95.6769C243.122 100.236 239.417 103.942 234.857 103.942C230.298 103.942 226.592 100.236 226.592 95.6769C226.592 91.1174 230.298 87.4117 234.857 87.4117ZM96.7578 103.993C92.1983 103.993 88.4927 100.288 88.4927 95.7281C88.4927 91.1686 92.1983 87.4629 96.7578 87.4629C101.317 87.4629 105.023 91.1686 105.023 95.7281C105.023 100.288 101.317 103.993 96.7578 103.993ZM174.833 232.103L174.491 231.932L176.438 224.077C176.66 223.172 175.721 222.42 174.884 222.847L165.816 227.492L156.748 222.847C155.912 222.42 154.972 223.172 155.194 224.077L157.141 231.932L156.8 232.103C133.661 236.013 121.656 227.765 121.656 227.765L165.816 181.009L209.976 227.765C209.976 227.765 197.989 236.03 174.833 232.103Z" fill="white"/>
<path d="M14.5504 158.758L17.2998 167.228C17.4023 167.536 17.6926 167.741 17.9999 167.741H26.8969C27.6141 167.741 27.9215 168.663 27.3409 169.09L20.1345 174.315C19.8784 174.503 19.7588 174.845 19.8613 175.152L22.6107 183.622C22.8327 184.305 22.0471 184.869 21.4665 184.459L14.2601 179.233C14.004 179.045 13.6454 179.045 13.3892 179.233L6.18284 184.459C5.60223 184.886 4.8167 184.305 5.0387 183.622L7.78805 175.152C7.89051 174.845 7.78805 174.503 7.51483 174.315L0.308447 169.09C-0.272162 168.663 0.0181429 167.741 0.752442 167.741H9.64942C9.97388 167.741 10.2642 167.536 10.3496 167.228L13.0989 158.758C13.3209 158.075 14.2943 158.075 14.5163 158.758H14.5504Z" fill="white"/>
<path d="M317.44 158.758L320.19 167.228C320.292 167.536 320.582 167.741 320.89 167.741H329.787C330.504 167.741 330.811 168.663 330.231 169.09L323.024 174.315C322.768 174.503 322.649 174.845 322.751 175.152L325.501 183.622C325.723 184.305 324.937 184.869 324.356 184.459L317.15 179.233C316.894 179.045 316.535 179.045 316.279 179.233L309.073 184.459C308.492 184.886 307.707 184.305 307.929 183.622L310.678 175.152C310.78 174.845 310.678 174.503 310.405 174.315L303.198 169.09C302.618 168.663 302.908 167.741 303.642 167.741H312.539C312.864 167.741 313.154 167.536 313.239 167.228L315.989 158.758C316.211 158.075 317.184 158.075 317.406 158.758H317.44Z" fill="white"/>
<path d="M143.787 65.5194V67.9443H146.605V79.9321H149.354V65.5194H143.787Z" fill="white"/>
<path d="M160.847 72.7258C160.608 72.5379 160.351 72.3842 160.078 72.2476C160.266 72.1451 160.437 72.0256 160.608 71.889C160.983 71.5475 161.274 71.1376 161.461 70.6766C161.649 70.1984 161.752 69.7202 161.752 69.2079C161.752 68.4224 161.564 67.7393 161.188 67.1587C160.813 66.5781 160.3 66.1171 159.634 65.7926C158.985 65.4681 158.217 65.2974 157.363 65.2974C156.509 65.2974 155.741 65.4681 155.075 65.7926C154.409 66.1171 153.896 66.5781 153.521 67.1587C153.145 67.7393 152.957 68.4224 152.957 69.2079C152.957 69.7202 153.06 70.1984 153.248 70.6766C153.435 71.1547 153.726 71.5475 154.101 71.889C154.255 72.0256 154.443 72.1451 154.631 72.2476C154.358 72.3842 154.084 72.5379 153.845 72.7258C153.367 73.1014 152.991 73.5625 152.735 74.109C152.479 74.6554 152.342 75.2702 152.342 75.9362C152.342 76.7388 152.547 77.4731 152.974 78.1049C153.401 78.7368 153.965 79.2491 154.716 79.6077C155.468 79.9663 156.338 80.1371 157.363 80.1371C158.388 80.1371 159.259 79.9663 160.01 79.6077C160.761 79.2491 161.342 78.7538 161.752 78.1049C162.162 77.456 162.367 76.7388 162.367 75.9362C162.367 75.2702 162.23 74.6554 161.974 74.109C161.718 73.5625 161.342 73.1014 160.864 72.7258H160.847ZM156.031 68.115C156.373 67.7735 156.817 67.6027 157.346 67.6027C157.875 67.6027 158.319 67.7735 158.661 68.115C159.002 68.4566 159.173 68.9006 159.173 69.447C159.173 69.9935 159.002 70.4204 158.661 70.7619C158.319 71.1035 157.875 71.2742 157.346 71.2742C156.817 71.2742 156.373 71.1035 156.031 70.7619C155.69 70.4204 155.502 69.9764 155.502 69.4299C155.502 68.8835 155.672 68.4566 156.031 68.115ZM159.395 76.6534C159.19 76.9779 158.917 77.234 158.558 77.4219C158.2 77.6097 157.807 77.6951 157.346 77.6951C156.885 77.6951 156.475 77.6097 156.134 77.4219C155.792 77.234 155.502 76.9779 155.297 76.6534C155.092 76.3289 154.989 75.9533 154.989 75.5434C154.989 75.1336 155.092 74.7408 155.297 74.4334C155.502 74.109 155.775 73.8528 156.134 73.682C156.492 73.5113 156.885 73.4088 157.346 73.4088C157.807 73.4088 158.2 73.4942 158.558 73.682C158.917 73.8699 159.19 74.1261 159.395 74.4334C159.6 74.7579 159.685 75.1336 159.685 75.5434C159.685 75.9533 159.583 76.3289 159.395 76.6534Z" fill="white"/>
<path d="M172.578 70.9839C171.878 70.5741 171.11 70.3862 170.239 70.3862C169.949 70.3862 169.692 70.4033 169.453 70.4546L172.971 65.5364H169.778L165.782 71.3084C164.911 72.5891 164.467 73.8699 164.467 75.1336C164.467 76.0557 164.689 76.9096 165.15 77.6609C165.611 78.4123 166.226 79.0271 167.011 79.4711C167.797 79.9151 168.685 80.1371 169.658 80.1371C170.632 80.1371 171.503 79.9151 172.305 79.454C173.091 79.01 173.723 78.3952 174.184 77.6268C174.645 76.8583 174.884 76.0045 174.884 75.0653C174.884 74.126 174.679 73.3405 174.252 72.6404C173.825 71.9402 173.261 71.3767 172.578 70.9839ZM171.81 76.3631C171.588 76.7559 171.298 77.0632 170.922 77.2852C170.546 77.5072 170.136 77.6268 169.658 77.6268C169.18 77.6268 168.753 77.5072 168.378 77.2852C168.002 77.0632 167.712 76.7559 167.49 76.3631C167.268 75.9703 167.165 75.5263 167.165 75.0482C167.165 74.57 167.268 74.1261 167.49 73.7333C167.694 73.3576 168.002 73.0502 168.378 72.8282C168.753 72.6062 169.18 72.4867 169.658 72.4867C170.136 72.4867 170.563 72.5891 170.922 72.8111C171.298 73.0331 171.588 73.3405 171.81 73.7162C172.032 74.0919 172.134 74.553 172.134 75.0311C172.134 75.5093 172.032 75.9703 171.81 76.346V76.3631Z" fill="white"/>
<path d="M186.411 72.8794C186.035 72.1622 185.505 71.5816 184.805 71.1547C184.105 70.7278 183.217 70.5058 182.176 70.5058C181.68 70.5058 181.253 70.557 180.895 70.6424C180.639 70.7107 180.417 70.8131 180.195 70.9327L180.519 67.9272H186.171V65.5023H178.265L177.616 72.1451L178.948 73.46C179.324 73.1697 179.734 72.9648 180.143 72.8282C180.553 72.6916 181.031 72.6404 181.544 72.6404C182.039 72.6404 182.483 72.7428 182.876 72.9307C183.268 73.1185 183.593 73.4088 183.832 73.7674C184.071 74.1431 184.191 74.5871 184.191 75.1165C184.191 75.6459 184.071 76.0557 183.832 76.4314C183.593 76.8071 183.268 77.0974 182.842 77.3023C182.415 77.5072 181.936 77.6097 181.373 77.6097C180.758 77.6097 180.195 77.4902 179.682 77.234C179.17 76.9949 178.777 76.6534 178.504 76.2435L176.66 78.0707C177.206 78.7197 177.889 79.232 178.709 79.5735C179.529 79.915 180.434 80.1029 181.441 80.1029C182.551 80.1029 183.508 79.898 184.344 79.471C185.164 79.0612 185.813 78.4806 186.274 77.7463C186.735 77.012 186.974 76.1752 186.974 75.2189C186.974 74.3651 186.786 73.5625 186.428 72.8453L186.411 72.8794Z" fill="white"/>
<path d="M130.331 192.331C130.382 192.229 130.416 192.109 130.467 192.007C139.603 174.64 148.739 157.273 157.876 139.906C157.927 139.82 157.978 139.718 158.029 139.632H205.093C205.024 139.786 204.973 139.906 204.905 140.025C202.839 143.936 200.789 147.863 198.723 151.774C191.687 165.162 184.635 178.55 177.599 191.938C177.531 192.075 177.463 192.212 177.394 192.348H130.331V192.331ZM184.379 165.931C184.327 156.982 176.694 150.1 167.712 150.1C158.61 150.1 151.062 157.119 151.062 165.948C151.062 174.759 158.61 181.778 167.729 181.778C176.728 181.778 184.344 174.879 184.379 165.931Z" fill="#CE2937"/>
<path d="M119.248 192.331C120.375 190.179 121.519 188.011 122.646 185.859C130.672 170.592 138.698 155.326 146.724 140.059C146.998 139.547 146.895 139.632 147.442 139.632C148.944 139.632 150.447 139.632 151.933 139.632C152.052 139.632 152.172 139.632 152.343 139.632C152.257 139.786 152.206 139.906 152.155 140.008C147.51 148.837 142.882 157.648 138.237 166.477C133.78 174.947 129.323 183.417 124.866 191.887C124.798 192.024 124.729 192.177 124.661 192.314H119.214L119.248 192.331Z" fill="#0B9246"/>
<path d="M124.849 192.331C125.976 190.179 127.12 188.011 128.247 185.859C136.273 170.592 144.299 155.326 152.326 140.059C152.599 139.547 152.496 139.632 153.043 139.632C154.545 139.632 156.048 139.632 157.534 139.632C157.653 139.632 157.773 139.632 157.944 139.632C157.858 139.786 157.807 139.906 157.756 140.008C153.111 148.837 148.483 157.648 143.838 166.477C139.381 174.947 134.924 183.417 130.467 191.887C130.399 192.024 130.331 192.177 130.262 192.314H124.815L124.849 192.331Z" fill="white"/>
<path d="M184.379 165.931C184.344 174.879 176.728 181.778 167.729 181.778C158.627 181.778 151.079 174.759 151.062 165.948C151.062 157.119 158.61 150.117 167.712 150.1C176.694 150.1 184.344 156.982 184.379 165.931ZM167.114 158.366C165.765 158.366 164.45 158.366 163.152 158.366C163.067 158.366 162.964 158.314 162.896 158.263C162.503 157.922 162.025 157.836 161.53 157.939C161.052 158.041 160.676 158.417 160.625 158.827C160.574 159.254 160.847 159.646 161.325 159.851C161.871 160.073 162.384 160.005 162.828 159.646C162.981 159.51 163.135 159.476 163.34 159.476C164.484 159.476 165.645 159.476 166.79 159.476C166.892 159.476 167.012 159.476 167.148 159.476C167.148 159.629 167.148 159.732 167.148 159.851C167.148 164.599 167.148 169.346 167.148 174.076C167.148 174.247 167.148 174.418 167.114 174.588C167.012 175.186 166.516 175.579 165.885 175.545C165.475 175.528 165.065 175.476 164.655 175.391C163.221 175.101 161.974 174.469 160.847 173.598C160.01 172.949 159.31 172.215 158.815 171.293C158.559 170.814 158.388 170.319 158.337 169.773C158.285 169.312 158.473 168.987 158.9 168.765C159.037 168.697 159.19 168.646 159.327 168.594C159.395 168.56 159.481 168.543 159.617 168.492C158.098 168.099 156.646 167.689 155.365 166.767C155.656 168.321 155.331 169.756 154.973 171.241C155.229 171.019 155.399 170.814 155.638 170.661C156.253 170.268 156.629 170.353 157.005 170.814C157.21 171.071 157.414 171.327 157.602 171.583C157.893 171.959 158.183 172.334 158.473 172.727C159.703 174.332 161.308 175.425 163.272 176.04C164.091 176.296 164.928 176.552 165.748 176.808C166.482 177.03 167.029 177.44 167.387 178.089C167.49 178.26 167.609 178.431 167.729 178.636C167.814 178.499 167.9 178.397 167.951 178.294C168.378 177.491 169.027 176.979 169.932 176.757C169.983 176.757 170.034 176.723 170.085 176.706C170.786 176.484 171.486 176.279 172.186 176.057C174.013 175.476 175.567 174.503 176.745 173.034C177.155 172.522 177.531 172.01 177.941 171.498C178.163 171.207 178.402 170.934 178.658 170.661C178.863 170.439 179.136 170.405 179.426 170.49C179.734 170.575 179.956 170.746 180.178 170.968C180.263 171.054 180.349 171.139 180.434 171.224C180.451 171.224 180.468 171.207 180.485 171.19C180.109 169.773 179.853 168.338 180.092 166.784C178.795 167.724 177.36 168.116 175.84 168.509C176.028 168.577 176.148 168.612 176.267 168.663C177.001 168.936 177.223 169.295 177.087 170.029C177.087 170.046 177.087 170.063 177.087 170.097C176.95 170.883 176.592 171.583 176.079 172.198C174.457 174.144 172.374 175.323 169.744 175.562C168.958 175.63 168.429 175.22 168.344 174.469C168.344 174.383 168.344 174.298 168.344 174.213C168.344 169.414 168.344 164.616 168.344 159.817C168.344 159.732 168.344 159.629 168.361 159.527C168.446 159.527 168.514 159.51 168.583 159.51C169.795 159.51 171.025 159.51 172.237 159.51C172.408 159.51 172.493 159.578 172.613 159.68C173.108 160.107 173.945 160.141 174.474 159.749C174.952 159.39 175.003 158.758 174.559 158.348C174.064 157.87 173.228 157.836 172.664 158.28C172.527 158.383 172.391 158.434 172.22 158.434C171.042 158.434 169.846 158.434 168.668 158.434C168.566 158.434 168.48 158.434 168.378 158.417V157.119C169.436 156.76 169.966 155.872 169.829 154.984C169.676 154.079 168.839 153.328 167.934 153.26C166.943 153.191 166.038 153.755 165.765 154.626C165.628 155.053 165.645 155.48 165.816 155.906C166.055 156.521 166.533 156.88 167.165 157.085V158.417L167.114 158.366Z" fill="white"/>
<path d="M167.114 158.366L167.114 157.034C166.499 156.829 166.021 156.453 165.765 155.855C165.594 155.428 165.577 155.001 165.714 154.575C165.987 153.704 166.892 153.14 167.882 153.208C168.805 153.26 169.641 154.028 169.778 154.933C169.915 155.821 169.385 156.709 168.326 157.068V158.366C168.429 158.366 168.531 158.383 168.617 158.383C169.795 158.383 170.99 158.383 172.169 158.383C172.339 158.383 172.476 158.331 172.613 158.229C173.176 157.785 174.013 157.819 174.508 158.297C174.935 158.707 174.901 159.339 174.423 159.698C173.911 160.09 173.057 160.073 172.561 159.629C172.459 159.527 172.357 159.458 172.186 159.458C170.973 159.458 169.744 159.458 168.531 159.458C168.463 159.458 168.395 159.458 168.309 159.476C168.309 159.578 168.292 159.68 168.292 159.766C168.292 164.564 168.292 169.363 168.292 174.162C168.292 174.247 168.292 174.332 168.292 174.418C168.378 175.169 168.907 175.579 169.693 175.511C172.322 175.254 174.406 174.076 176.028 172.146C176.54 171.532 176.899 170.832 177.036 170.046C177.036 170.029 177.036 170.012 177.036 169.978C177.155 169.243 176.933 168.885 176.216 168.612C176.096 168.56 175.977 168.526 175.789 168.458C177.309 168.065 178.743 167.672 180.041 166.733C179.802 168.27 180.075 169.704 180.434 171.139C180.417 171.139 180.4 171.156 180.383 171.173C180.297 171.088 180.212 171.002 180.126 170.917C179.922 170.712 179.682 170.524 179.375 170.439C179.085 170.353 178.812 170.388 178.607 170.61C178.368 170.883 178.128 171.173 177.889 171.446C177.48 171.959 177.104 172.471 176.694 172.983C175.516 174.452 173.962 175.408 172.135 176.006C171.434 176.228 170.734 176.433 170.034 176.655C169.983 176.655 169.932 176.689 169.88 176.706C168.975 176.928 168.309 177.457 167.899 178.243C167.848 178.345 167.763 178.448 167.678 178.584C167.541 178.379 167.438 178.209 167.336 178.038C166.977 177.406 166.414 176.979 165.697 176.757C164.86 176.501 164.04 176.245 163.22 175.989C161.257 175.357 159.634 174.264 158.422 172.676C158.132 172.3 157.841 171.924 157.551 171.532C157.346 171.276 157.158 171.019 156.953 170.763C156.578 170.302 156.202 170.217 155.587 170.61C155.365 170.746 155.177 170.968 154.921 171.19C155.28 169.704 155.604 168.27 155.314 166.716C156.595 167.638 158.046 168.048 159.566 168.441C159.429 168.492 159.361 168.526 159.276 168.543C159.139 168.595 158.985 168.646 158.849 168.714C158.422 168.919 158.251 169.26 158.285 169.722C158.337 170.251 158.49 170.763 158.763 171.241C159.259 172.164 159.976 172.898 160.796 173.547C161.923 174.418 163.169 175.049 164.604 175.34C165.014 175.425 165.423 175.459 165.833 175.494C166.465 175.528 166.96 175.135 167.063 174.537C167.097 174.366 167.097 174.196 167.097 174.025C167.097 169.278 167.097 164.53 167.097 159.8C167.097 159.68 167.097 159.578 167.097 159.424C166.943 159.424 166.841 159.424 166.738 159.424C165.594 159.424 164.433 159.424 163.289 159.424C163.084 159.424 162.947 159.476 162.776 159.595C162.332 159.954 161.82 160.022 161.274 159.8C160.796 159.612 160.522 159.202 160.574 158.775C160.625 158.366 161.001 157.99 161.479 157.887C161.991 157.785 162.452 157.87 162.845 158.212C162.913 158.263 163.016 158.314 163.101 158.314C164.416 158.314 165.714 158.314 167.063 158.314L167.114 158.366ZM167.712 154.216C167.148 154.216 166.653 154.694 166.67 155.206C166.67 155.684 167.148 156.129 167.678 156.111C168.292 156.111 168.702 155.685 168.702 155.155C168.702 154.626 168.258 154.199 167.712 154.199V154.216Z" fill="black"/>
<path d="M167.712 154.216C168.258 154.216 168.702 154.626 168.702 155.172C168.702 155.719 168.292 156.111 167.678 156.128C167.148 156.128 166.67 155.702 166.67 155.223C166.67 154.711 167.148 154.233 167.712 154.233V154.216Z" fill="white"/>
<line x1="415.801" y1="4.60132e-08" x2="415.801" y2="332.64" stroke="white" stroke-width="2.10532"/>
<path d="M987.519 68.5V168.122H1439.23L1477.44 68.5H987.519Z" fill="#027C8A"/>
<path d="M1022.28 140.148V99.0168H1048.22V104.841H1028.95V116.49H1044.62V122.255H1028.95V134.264H1048.22V140.148H1022.28ZM1056.07 140.148V99.0168H1067.66L1076.85 131.142L1086.04 99.0168H1097.69V140.148H1090.96V106.402H1090.06L1080.33 138.467H1073.37L1063.64 106.402H1062.74V140.148H1056.07ZM1119.76 104.181C1114.68 104.181 1112.13 105.962 1112.13 109.525C1112.13 111.366 1112.73 112.687 1113.94 113.488C1115.14 114.249 1117.78 115.209 1121.86 116.37C1125.98 117.491 1128.89 118.852 1130.57 120.453C1132.25 122.014 1133.09 124.496 1133.09 127.899C1133.09 132.222 1131.85 135.465 1129.37 137.626C1126.93 139.748 1123.58 140.809 1119.34 140.809C1115.94 140.809 1112.17 140.409 1108.05 139.608L1105.89 139.188L1106.55 133.844C1111.95 134.564 1116.08 134.924 1118.92 134.924C1123.88 134.924 1126.37 132.723 1126.37 128.319C1126.37 126.598 1125.8 125.337 1124.68 124.536C1123.56 123.696 1121.04 122.795 1117.12 121.834C1113.2 120.834 1110.27 119.473 1108.35 117.751C1106.43 116.03 1105.47 113.308 1105.47 109.585C1105.47 105.862 1106.67 103.06 1109.07 101.178C1111.51 99.257 1114.88 98.2963 1119.16 98.2963C1122.24 98.2963 1125.88 98.6565 1130.09 99.3771L1132.19 99.7374L1131.65 105.142C1126.05 104.501 1122.08 104.181 1119.76 104.181ZM1137.59 99.0168H1144.62L1150.5 134.384H1151.76L1159.57 99.1369H1167.37L1175.18 134.384H1176.5L1182.39 99.0168H1189.41L1181.31 140.148H1170.56L1163.47 107.183L1156.45 140.148H1145.64L1137.59 99.0168ZM1196.21 140.148V99.0168H1222.15V104.841H1202.87V116.49H1218.54V122.255H1202.87V134.264H1222.15V140.148H1196.21ZM1242.71 126.938V120.994H1260.66V126.938H1242.71ZM1283.46 140.148V99.0168H1290.12V140.148H1283.46ZM1315.56 115.71H1307.27V128.92C1307.27 131.362 1307.45 132.983 1307.81 133.784C1308.17 134.584 1309.09 134.984 1310.57 134.984L1315.5 134.804L1315.8 140.028C1313.11 140.549 1311.07 140.809 1309.67 140.809C1306.27 140.809 1303.93 140.028 1302.65 138.467C1301.4 136.906 1300.78 133.964 1300.78 129.64V115.71H1296.94V110.125H1300.78V101.419H1307.27V110.125H1315.56V115.71ZM1343.74 119.372V133.063C1343.78 133.944 1344 134.604 1344.4 135.045C1344.84 135.445 1345.5 135.705 1346.38 135.825L1346.2 140.809C1342.76 140.809 1340.1 140.068 1338.22 138.587C1335.01 140.068 1331.79 140.809 1328.55 140.809C1322.58 140.809 1319.6 137.626 1319.6 131.262C1319.6 128.219 1320.4 126.018 1322 124.657C1323.65 123.295 1326.15 122.475 1329.51 122.195L1337.26 121.534V119.372C1337.26 117.771 1336.9 116.65 1336.18 116.01C1335.49 115.369 1334.47 115.049 1333.11 115.049C1330.55 115.049 1327.35 115.209 1323.51 115.53L1321.58 115.65L1321.34 111.026C1325.71 109.985 1329.71 109.465 1333.35 109.465C1337.04 109.465 1339.68 110.265 1341.28 111.867C1342.92 113.428 1343.74 115.93 1343.74 119.372ZM1330.29 126.818C1327.53 127.058 1326.15 128.56 1326.15 131.322C1326.15 134.084 1327.37 135.465 1329.81 135.465C1331.81 135.465 1333.93 135.145 1336.18 134.504L1337.26 134.144V126.158L1330.29 126.818ZM1352.92 140.148V97.6358H1359.46V140.148H1352.92ZM1368.35 140.148V110.125H1374.89V140.148H1368.35ZM1368.35 105.021V98.1161H1374.89V105.021H1368.35ZM1405.65 119.372V133.063C1405.69 133.944 1405.91 134.604 1406.31 135.045C1406.75 135.445 1407.41 135.705 1408.29 135.825L1408.11 140.809C1404.67 140.809 1402 140.068 1400.12 138.587C1396.92 140.068 1393.7 140.809 1390.46 140.809C1384.49 140.809 1381.51 137.626 1381.51 131.262C1381.51 128.219 1382.31 126.018 1383.91 124.657C1385.55 123.295 1388.05 122.475 1391.42 122.195L1399.16 121.534V119.372C1399.16 117.771 1398.8 116.65 1398.08 116.01C1397.4 115.369 1396.38 115.049 1395.02 115.049C1392.46 115.049 1389.25 115.209 1385.41 115.53L1383.49 115.65L1383.25 111.026C1387.61 109.985 1391.62 109.465 1395.26 109.465C1398.94 109.465 1401.58 110.265 1403.19 111.867C1404.83 113.428 1405.65 115.93 1405.65 119.372ZM1392.2 126.818C1389.43 127.058 1388.05 128.56 1388.05 131.322C1388.05 134.084 1389.27 135.465 1391.72 135.465C1393.72 135.465 1395.84 135.145 1398.08 134.504L1399.16 134.144V126.158L1392.2 126.818Z" fill="white"/>
<path d="M517.785 170.727V54.8102H550.614L585.812 154.143H588.351V54.8102H607.134V170.727H574.982L538.938 71.2246H536.569V170.727H517.785ZM695.898 112.176V150.758C696.011 153.24 696.632 155.102 697.76 156.343C699.001 157.471 700.862 158.204 703.344 158.543L702.837 172.588C693.135 172.588 685.632 170.501 680.33 166.327C671.305 170.501 662.224 172.588 653.086 172.588C636.276 172.588 627.872 163.619 627.872 145.682C627.872 137.108 630.128 130.903 634.64 127.068C639.266 123.232 646.317 120.919 655.793 120.129L677.623 118.268V112.176C677.623 107.664 676.607 104.505 674.577 102.7C672.659 100.895 669.782 99.9922 665.946 99.9922C658.726 99.9922 649.701 100.443 638.871 101.346L633.456 101.684L632.779 88.6544C645.076 85.7212 656.357 84.2546 666.623 84.2546C677.002 84.2546 684.448 86.5109 688.96 91.0235C693.586 95.4232 695.898 102.474 695.898 112.176ZM657.993 133.159C650.209 133.836 646.317 138.067 646.317 145.851C646.317 153.635 649.758 157.527 656.639 157.527C662.28 157.527 668.259 156.625 674.577 154.82L677.623 153.804V131.298L657.993 133.159ZM711.967 86.1161H731.258L747.503 154.989H752.918L769.84 86.1161H788.624L766.625 170.727H733.796L711.967 86.1161ZM804.735 170.727V86.1161H823.18V170.727H804.735ZM804.735 71.7323V52.2718H823.18V71.7323H804.735ZM905.965 103.546C892.653 101.741 883.008 100.838 877.028 100.838C871.049 100.838 866.875 101.572 864.506 103.038C862.25 104.392 861.122 106.592 861.122 109.638C861.122 112.684 862.363 114.827 864.845 116.068C867.439 117.309 873.418 118.776 882.782 120.468C892.258 122.047 898.971 124.586 902.919 128.083C906.868 131.58 908.842 137.785 908.842 146.697C908.842 155.609 905.965 162.153 900.212 166.327C894.571 170.501 886.279 172.588 875.336 172.588C868.455 172.588 859.768 171.629 849.276 169.711L844.03 168.865L844.707 153.466C858.245 155.271 868.003 156.174 873.982 156.174C879.962 156.174 884.192 155.44 886.674 153.974C889.269 152.507 890.566 150.082 890.566 146.697C890.566 143.313 889.325 141 886.843 139.759C884.474 138.405 878.664 136.995 869.413 135.529C860.276 133.949 853.563 131.524 849.276 128.252C844.989 124.98 842.846 119.001 842.846 110.315C842.846 101.628 845.779 95.1412 851.645 90.8542C857.624 86.5673 865.239 84.4238 874.49 84.4238C881.71 84.4238 890.566 85.3264 901.058 87.1314L906.304 88.1467L905.965 103.546Z" fill="white"/>
<path d="M506.545 315.453V249.693H548.017V259.005H517.201V277.629H542.257V286.845H517.201V306.045H548.017V315.453H506.545ZM591.006 267.453H601.374V315.453H591.006V312.477C586.334 315.165 582.014 316.509 578.046 316.509C571.454 316.509 567.038 314.749 564.798 311.229C562.558 307.645 561.438 301.405 561.438 292.509V267.453H571.902V292.605C571.902 298.365 572.382 302.237 573.342 304.221C574.302 306.205 576.542 307.197 580.062 307.197C583.518 307.197 586.686 306.557 589.566 305.277L591.006 304.701V267.453ZM617.883 315.453V267.453H628.251V273.213C633.691 269.693 639.131 267.421 644.571 266.397V276.861C639.067 277.949 634.363 279.357 630.459 281.085L628.347 281.949V315.453H617.883ZM658.628 272.637C661.956 268.477 667.46 266.397 675.14 266.397C682.82 266.397 688.292 268.477 691.556 272.637C694.884 276.797 696.548 283.037 696.548 291.357C696.548 299.677 694.948 305.949 691.748 310.173C688.548 314.397 683.012 316.509 675.14 316.509C667.268 316.509 661.732 314.397 658.532 310.173C655.332 305.949 653.732 299.677 653.732 291.357C653.732 283.037 655.364 276.797 658.628 272.637ZM666.5 303.837C667.972 306.397 670.852 307.677 675.14 307.677C679.428 307.677 682.308 306.397 683.78 303.837C685.252 301.277 685.988 297.085 685.988 291.261C685.988 285.437 685.188 281.309 683.588 278.877C682.052 276.445 679.236 275.229 675.14 275.229C671.044 275.229 668.196 276.445 666.596 278.877C665.06 281.309 664.292 285.437 664.292 291.261C664.292 297.085 665.028 301.277 666.5 303.837ZM710.782 336.093V267.453H721.15V270.429C725.566 267.741 729.694 266.397 733.534 266.397C739.87 266.397 744.51 268.349 747.454 272.253C750.398 276.093 751.87 282.589 751.87 291.741C751.87 300.829 750.174 307.229 746.782 310.941C743.454 314.653 737.982 316.509 730.366 316.509C727.742 316.509 724.702 316.221 721.246 315.645V336.093H710.782ZM731.71 275.709C728.702 275.709 725.694 276.381 722.686 277.725L721.246 278.397V306.717C723.806 307.229 726.622 307.485 729.694 307.485C734.046 307.485 737.054 306.237 738.718 303.741C740.382 301.245 741.214 296.989 741.214 290.973C741.214 280.797 738.046 275.709 731.71 275.709ZM800.36 306.813L803.048 306.525L803.24 314.301C795.944 315.773 789.48 316.509 783.848 316.509C776.744 316.509 771.624 314.557 768.488 310.653C765.416 306.749 763.88 300.509 763.88 291.933C763.88 274.909 770.824 266.397 784.712 266.397C798.152 266.397 804.872 273.725 804.872 288.381L804.2 295.869H774.44C774.504 299.837 775.368 302.749 777.032 304.605C778.696 306.461 781.8 307.389 786.344 307.389C790.888 307.389 795.56 307.197 800.36 306.813ZM794.6 287.805C794.6 283.069 793.832 279.773 792.296 277.917C790.824 275.997 788.296 275.037 784.712 275.037C781.128 275.037 778.504 276.029 776.84 278.013C775.24 279.997 774.408 283.261 774.344 287.805H794.6ZM854.294 282.237V304.125C854.358 305.533 854.71 306.589 855.35 307.293C856.054 307.933 857.11 308.349 858.518 308.541L858.23 316.509C852.726 316.509 848.47 315.325 845.462 312.957C840.342 315.325 835.19 316.509 830.006 316.509C820.47 316.509 815.702 311.421 815.702 301.245C815.702 296.381 816.982 292.861 819.542 290.685C822.166 288.509 826.166 287.197 831.542 286.749L843.926 285.693V282.237C843.926 279.677 843.35 277.885 842.198 276.861C841.11 275.837 839.478 275.325 837.302 275.325C833.206 275.325 828.086 275.581 821.942 276.093L818.87 276.285L818.486 268.893C825.462 267.229 831.862 266.397 837.686 266.397C843.574 266.397 847.798 267.677 850.358 270.237C852.982 272.733 854.294 276.733 854.294 282.237ZM832.79 294.141C828.374 294.525 826.166 296.925 826.166 301.341C826.166 305.757 828.118 307.965 832.022 307.965C835.222 307.965 838.614 307.453 842.198 306.429L843.926 305.853V293.085L832.79 294.141ZM881.735 315.453H871.271V267.453H881.639V270.429C886.311 267.741 890.727 266.397 894.887 266.397C901.287 266.397 905.639 268.221 907.943 271.869C910.311 275.453 911.495 281.405 911.495 289.725V315.453H901.127V290.013C901.127 284.829 900.551 281.149 899.399 278.973C898.311 276.797 896.039 275.709 892.583 275.709C889.319 275.709 886.183 276.349 883.175 277.629L881.735 278.205V315.453ZM953.699 315.453V249.693H972.227L986.915 301.053L1001.6 249.693H1020.23V315.453H1009.47V261.501H1008.03L992.483 312.765H981.347L965.795 261.501H964.355V315.453H953.699ZM1073.37 282.237V304.125C1073.44 305.533 1073.79 306.589 1074.43 307.293C1075.13 307.933 1076.19 308.349 1077.6 308.541L1077.31 316.509C1071.81 316.509 1067.55 315.325 1064.54 312.957C1059.42 315.325 1054.27 316.509 1049.09 316.509C1039.55 316.509 1034.78 311.421 1034.78 301.245C1034.78 296.381 1036.06 292.861 1038.62 290.685C1041.25 288.509 1045.25 287.197 1050.62 286.749L1063.01 285.693V282.237C1063.01 279.677 1062.43 277.885 1061.28 276.861C1060.19 275.837 1058.56 275.325 1056.38 275.325C1052.29 275.325 1047.17 275.581 1041.02 276.093L1037.95 276.285L1037.57 268.893C1044.54 267.229 1050.94 266.397 1056.77 266.397C1062.65 266.397 1066.88 267.677 1069.44 270.237C1072.06 272.733 1073.37 276.733 1073.37 282.237ZM1051.87 294.141C1047.45 294.525 1045.25 296.925 1045.25 301.341C1045.25 305.757 1047.2 307.965 1051.1 307.965C1054.3 307.965 1057.69 307.453 1061.28 306.429L1063.01 305.853V293.085L1051.87 294.141ZM1090.35 315.453V267.453H1100.72V273.213C1106.16 269.693 1111.6 267.421 1117.04 266.397V276.861C1111.53 277.949 1106.83 279.357 1102.93 281.085L1100.81 281.949V315.453H1090.35ZM1128.88 315.453V267.453H1139.34V315.453H1128.88ZM1128.88 259.293V248.253H1139.34V259.293H1128.88ZM1181.7 276.381H1168.45V297.501C1168.45 301.405 1168.74 303.997 1169.31 305.277C1169.89 306.557 1171.36 307.197 1173.73 307.197L1181.6 306.909L1182.08 315.261C1177.79 316.093 1174.53 316.509 1172.29 316.509C1166.85 316.509 1163.11 315.261 1161.06 312.765C1159.07 310.269 1158.08 305.565 1158.08 298.653V276.381H1151.94V267.453H1158.08V253.533H1168.45V267.453H1181.7V276.381ZM1194.12 315.453V267.453H1204.58V315.453H1194.12ZM1194.12 259.293V248.253H1204.58V259.293H1194.12ZM1231.58 315.453H1221.12V267.453H1231.48V270.429C1236.03 267.741 1240.19 266.397 1243.96 266.397C1249.53 266.397 1253.6 267.965 1256.16 271.101C1261.98 267.965 1267.77 266.397 1273.53 266.397C1279.29 266.397 1283.36 268.189 1285.72 271.773C1288.09 275.293 1289.28 281.277 1289.28 289.725V315.453H1278.91V290.013C1278.91 284.829 1278.36 281.149 1277.28 278.973C1276.25 276.797 1274.08 275.709 1270.75 275.709C1267.87 275.709 1264.76 276.349 1261.44 277.629L1259.8 278.301C1260.32 279.581 1260.57 283.677 1260.57 290.589V315.453H1250.2V290.781C1250.2 285.085 1249.69 281.149 1248.67 278.973C1247.64 276.797 1245.4 275.709 1241.95 275.709C1238.75 275.709 1235.77 276.349 1233.02 277.629L1231.58 278.205V315.453ZM1339.57 306.813L1342.26 306.525L1342.45 314.301C1335.15 315.773 1328.69 316.509 1323.06 316.509C1315.95 316.509 1310.83 314.557 1307.7 310.653C1304.63 306.749 1303.09 300.509 1303.09 291.933C1303.09 274.909 1310.03 266.397 1323.92 266.397C1337.36 266.397 1344.08 273.725 1344.08 288.381L1343.41 295.869H1313.65C1313.71 299.837 1314.58 302.749 1316.24 304.605C1317.91 306.461 1321.01 307.389 1325.55 307.389C1330.1 307.389 1334.77 307.197 1339.57 306.813ZM1333.81 287.805C1333.81 283.069 1333.04 279.773 1331.51 277.917C1330.03 275.997 1327.51 275.037 1323.92 275.037C1320.34 275.037 1317.71 276.029 1316.05 278.013C1314.45 279.997 1313.62 283.261 1313.55 287.805H1333.81ZM1403.46 257.949C1395.33 257.949 1391.27 260.797 1391.27 266.493C1391.27 269.437 1392.23 271.549 1394.15 272.829C1396.07 274.045 1400.29 275.581 1406.82 277.437C1413.41 279.229 1418.05 281.405 1420.74 283.965C1423.43 286.461 1424.77 290.429 1424.77 295.869C1424.77 302.781 1422.79 307.965 1418.82 311.421C1414.92 314.813 1409.57 316.509 1402.79 316.509C1397.35 316.509 1391.33 315.869 1384.74 314.589L1381.28 313.917L1382.34 305.373C1390.98 306.525 1397.57 307.101 1402.12 307.101C1410.05 307.101 1414.02 303.581 1414.02 296.541C1414.02 293.789 1413.12 291.773 1411.33 290.493C1409.54 289.149 1405.51 287.709 1399.24 286.173C1392.96 284.573 1388.29 282.397 1385.22 279.645C1382.15 276.893 1380.61 272.541 1380.61 266.589C1380.61 260.637 1382.53 256.157 1386.37 253.149C1390.28 250.077 1395.65 248.541 1402.5 248.541C1407.43 248.541 1413.25 249.117 1419.97 250.269L1423.33 250.845L1422.47 259.485C1413.51 258.461 1407.17 257.949 1403.46 257.949ZM1438.88 315.453V267.453H1449.35V315.453H1438.88ZM1438.88 259.293V248.253H1449.35V259.293H1438.88ZM1476.34 315.453H1465.88V267.453H1476.25V270.429C1480.92 267.741 1485.33 266.397 1489.49 266.397C1495.89 266.397 1500.25 268.221 1502.55 271.869C1504.92 275.453 1506.1 281.405 1506.1 289.725V315.453H1495.73V290.013C1495.73 284.829 1495.16 281.149 1494.01 278.973C1492.92 276.797 1490.65 275.709 1487.19 275.709C1483.93 275.709 1480.79 276.349 1477.78 277.629L1476.34 278.205V315.453ZM1564.08 321.981C1564.08 332.477 1556.49 337.725 1541.32 337.725C1534.03 337.725 1528.62 336.733 1525.1 334.749C1521.58 332.765 1519.82 329.149 1519.82 323.901C1519.82 321.533 1520.4 319.485 1521.55 317.757C1522.7 316.093 1524.56 314.269 1527.12 312.285C1525 310.877 1523.95 308.541 1523.95 305.277C1523.95 303.997 1524.81 301.917 1526.54 299.037L1527.4 297.597C1522.8 294.845 1520.49 290.045 1520.49 283.197C1520.49 277.437 1522.22 273.213 1525.68 270.525C1529.13 267.837 1533.8 266.493 1539.69 266.493C1542.51 266.493 1545.29 266.813 1548.04 267.453L1549.48 267.741L1564.36 267.357V275.805L1556.4 275.325C1558.12 277.565 1558.99 280.189 1558.99 283.197C1558.99 289.469 1557.39 293.821 1554.19 296.253C1551.05 298.621 1546.12 299.805 1539.4 299.805C1537.74 299.805 1536.33 299.677 1535.18 299.421C1534.28 301.597 1533.84 303.293 1533.84 304.509C1533.84 305.661 1534.41 306.461 1535.56 306.909C1536.78 307.357 1539.66 307.613 1544.2 307.677C1551.82 307.741 1557.04 308.765 1559.85 310.749C1562.67 312.733 1564.08 316.477 1564.08 321.981ZM1530.09 322.941C1530.09 325.181 1530.99 326.781 1532.78 327.741C1534.57 328.701 1537.64 329.181 1542 329.181C1549.74 329.181 1553.61 326.973 1553.61 322.557C1553.61 320.061 1552.91 318.461 1551.5 317.757C1550.16 317.117 1547.44 316.765 1543.34 316.701L1533.93 316.125C1532.52 317.277 1531.53 318.333 1530.96 319.293C1530.38 320.317 1530.09 321.533 1530.09 322.941ZM1530.86 283.197C1530.86 286.141 1531.56 288.317 1532.97 289.725C1534.38 291.069 1536.65 291.741 1539.79 291.741C1542.92 291.741 1545.16 291.069 1546.51 289.725C1547.92 288.317 1548.62 286.141 1548.62 283.197C1548.62 280.253 1547.92 278.109 1546.51 276.765C1545.1 275.357 1542.83 274.653 1539.69 274.653C1533.8 274.653 1530.86 277.501 1530.86 283.197ZM1576.98 315.453V247.485H1587.44V315.453H1576.98ZM1638.7 306.813L1641.39 306.525L1641.58 314.301C1634.28 315.773 1627.82 316.509 1622.19 316.509C1615.08 316.509 1609.96 314.557 1606.83 310.653C1603.76 306.749 1602.22 300.509 1602.22 291.933C1602.22 274.909 1609.16 266.397 1623.05 266.397C1636.49 266.397 1643.21 273.725 1643.21 288.381L1642.54 295.869H1612.78C1612.84 299.837 1613.71 302.749 1615.37 304.605C1617.04 306.461 1620.14 307.389 1624.68 307.389C1629.23 307.389 1633.9 307.197 1638.7 306.813ZM1632.94 287.805C1632.94 283.069 1632.17 279.773 1630.64 277.917C1629.16 275.997 1626.64 275.037 1623.05 275.037C1619.47 275.037 1616.84 276.029 1615.18 278.013C1613.58 279.997 1612.75 283.261 1612.68 287.805H1632.94ZM1678.01 249.693H1689.25L1698.65 306.237H1700.67L1713.15 249.885H1725.63L1738.11 306.237H1740.22L1749.63 249.693H1760.86L1747.9 315.453H1730.72L1719.39 262.749L1708.16 315.453H1690.88L1678.01 249.693ZM1773.36 315.453V267.453H1783.82V315.453H1773.36ZM1773.36 259.293V248.253H1783.82V259.293H1773.36ZM1810.82 315.453H1800.35V267.453H1810.72V270.429C1815.39 267.741 1819.81 266.397 1823.97 266.397C1830.37 266.397 1834.72 268.221 1837.02 271.869C1839.39 275.453 1840.58 281.405 1840.58 289.725V315.453H1830.21V290.013C1830.21 284.829 1829.63 281.149 1828.48 278.973C1827.39 276.797 1825.12 275.709 1821.66 275.709C1818.4 275.709 1815.26 276.349 1812.26 277.629L1810.82 278.205V315.453ZM1895.77 247.485V315.453H1885.4V312.957C1880.73 315.325 1876.44 316.509 1872.53 316.509C1866.26 316.509 1861.65 314.621 1858.71 310.845C1855.83 307.069 1854.39 300.733 1854.39 291.837C1854.39 282.941 1855.99 276.477 1859.19 272.445C1862.45 268.413 1867.51 266.397 1874.36 266.397C1876.66 266.397 1880.31 266.813 1885.3 267.645V247.485H1895.77ZM1883.67 305.469L1885.3 304.797V276.381C1881.46 275.741 1877.91 275.421 1874.65 275.421C1868.18 275.421 1864.95 280.797 1864.95 291.549C1864.95 297.437 1865.69 301.533 1867.16 303.837C1868.69 306.077 1871.09 307.197 1874.36 307.197C1877.62 307.197 1880.73 306.621 1883.67 305.469ZM1914.87 272.637C1918.2 268.477 1923.71 266.397 1931.39 266.397C1939.07 266.397 1944.54 268.477 1947.8 272.637C1951.13 276.797 1952.79 283.037 1952.79 291.357C1952.79 299.677 1951.19 305.949 1947.99 310.173C1944.79 314.397 1939.26 316.509 1931.39 316.509C1923.51 316.509 1917.98 314.397 1914.78 310.173C1911.58 305.949 1909.98 299.677 1909.98 291.357C1909.98 283.037 1911.61 276.797 1914.87 272.637ZM1922.75 303.837C1924.22 306.397 1927.1 307.677 1931.39 307.677C1935.67 307.677 1938.55 306.397 1940.03 303.837C1941.5 301.277 1942.23 297.085 1942.23 291.261C1942.23 285.437 1941.43 281.309 1939.83 278.877C1938.3 276.445 1935.48 275.229 1931.39 275.229C1927.29 275.229 1924.44 276.445 1922.84 278.877C1921.31 281.309 1920.54 285.437 1920.54 291.261C1920.54 297.085 1921.27 301.277 1922.75 303.837ZM1963.28 267.453H1973.56L1981.14 306.525H1983.06L1992.18 268.413H2002.93L2012.05 306.525H2013.97L2021.46 267.453H2031.83L2021.65 315.453H2005.04L1997.56 282.525L1990.07 315.453H1973.46L1963.28 267.453ZM2103.67 306.813L2106.35 306.525L2106.55 314.301C2099.25 315.773 2092.79 316.509 2087.15 316.509C2080.05 316.509 2074.93 314.557 2071.79 310.653C2068.72 306.749 2067.19 300.509 2067.19 291.933C2067.19 274.909 2074.13 266.397 2088.02 266.397C2101.46 266.397 2108.18 273.725 2108.18 288.381L2107.51 295.869H2077.75C2077.81 299.837 2078.67 302.749 2080.34 304.605C2082 306.461 2085.11 307.389 2089.65 307.389C2094.19 307.389 2098.87 307.197 2103.67 306.813ZM2097.91 287.805C2097.91 283.069 2097.14 279.773 2095.6 277.917C2094.13 275.997 2091.6 275.037 2088.02 275.037C2084.43 275.037 2081.81 276.029 2080.15 278.013C2078.55 279.997 2077.71 283.261 2077.65 287.805H2097.91ZM2132.54 315.453H2122.08V267.453H2132.45V270.429C2137.12 267.741 2141.54 266.397 2145.7 266.397C2152.1 266.397 2156.45 268.221 2158.75 271.869C2161.12 275.453 2162.3 281.405 2162.3 289.725V315.453H2151.94V290.013C2151.94 284.829 2151.36 281.149 2150.21 278.973C2149.12 276.797 2146.85 275.709 2143.39 275.709C2140.13 275.709 2136.99 276.349 2133.98 277.629L2132.54 278.205V315.453ZM2173.34 267.453H2184.29L2193.5 306.525H2196.58L2206.18 267.453H2216.83L2204.35 315.453H2185.73L2173.34 267.453ZM2228.85 315.453V267.453H2239.32V315.453H2228.85ZM2228.85 259.293V248.253H2239.32V259.293H2228.85ZM2255.85 315.453V267.453H2266.22V273.213C2271.66 269.693 2277.1 267.421 2282.54 266.397V276.861C2277.03 277.949 2272.33 279.357 2268.43 281.085L2266.31 281.949V315.453H2255.85ZM2296.59 272.637C2299.92 268.477 2305.43 266.397 2313.11 266.397C2320.79 266.397 2326.26 268.477 2329.52 272.637C2332.85 276.797 2334.51 283.037 2334.51 291.357C2334.51 299.677 2332.91 305.949 2329.71 310.173C2326.51 314.397 2320.98 316.509 2313.11 316.509C2305.23 316.509 2299.7 314.397 2296.5 310.173C2293.3 305.949 2291.7 299.677 2291.7 291.357C2291.7 283.037 2293.33 276.797 2296.59 272.637ZM2304.47 303.837C2305.94 306.397 2308.82 307.677 2313.11 307.677C2317.39 307.677 2320.27 306.397 2321.75 303.837C2323.22 301.277 2323.95 297.085 2323.95 291.261C2323.95 285.437 2323.15 281.309 2321.55 278.877C2320.02 276.445 2317.2 275.229 2313.11 275.229C2309.01 275.229 2306.16 276.445 2304.56 278.877C2303.03 281.309 2302.26 285.437 2302.26 291.261C2302.26 297.085 2302.99 301.277 2304.47 303.837ZM2359.21 315.453H2348.75V267.453H2359.12V270.429C2363.79 267.741 2368.2 266.397 2372.36 266.397C2378.76 266.397 2383.12 268.221 2385.42 271.869C2387.79 275.453 2388.97 281.405 2388.97 289.725V315.453H2378.6V290.013C2378.6 284.829 2378.03 281.149 2376.88 278.973C2375.79 276.797 2373.52 275.709 2370.06 275.709C2366.8 275.709 2363.66 276.349 2360.65 277.629L2359.21 278.205V315.453ZM2415.46 315.453H2404.99V267.453H2415.36V270.429C2419.91 267.741 2424.07 266.397 2427.84 266.397C2433.41 266.397 2437.47 267.965 2440.03 271.101C2445.86 267.965 2451.65 266.397 2457.41 266.397C2463.17 266.397 2467.23 268.189 2469.6 271.773C2471.97 275.293 2473.15 281.277 2473.15 289.725V315.453H2462.79V290.013C2462.79 284.829 2462.24 281.149 2461.15 278.973C2460.13 276.797 2457.95 275.709 2454.63 275.709C2451.75 275.709 2448.64 276.349 2445.31 277.629L2443.68 278.301C2444.19 279.581 2444.45 283.677 2444.45 290.589V315.453H2434.08V290.781C2434.08 285.085 2433.57 281.149 2432.55 278.973C2431.52 276.797 2429.28 275.709 2425.83 275.709C2422.63 275.709 2419.65 276.349 2416.9 277.629L2415.46 278.205V315.453ZM2523.45 306.813L2526.14 306.525L2526.33 314.301C2519.03 315.773 2512.57 316.509 2506.94 316.509C2499.83 316.509 2494.71 314.557 2491.58 310.653C2488.5 306.749 2486.97 300.509 2486.97 291.933C2486.97 274.909 2493.91 266.397 2507.8 266.397C2521.24 266.397 2527.96 273.725 2527.96 288.381L2527.29 295.869H2497.53C2497.59 299.837 2498.46 302.749 2500.12 304.605C2501.78 306.461 2504.89 307.389 2509.43 307.389C2513.98 307.389 2518.65 307.197 2523.45 306.813ZM2517.69 287.805C2517.69 283.069 2516.92 279.773 2515.38 277.917C2513.91 275.997 2511.38 275.037 2507.8 275.037C2504.22 275.037 2501.59 276.029 2499.93 278.013C2498.33 279.997 2497.5 283.261 2497.43 287.805H2517.69ZM2552.33 315.453H2541.86V267.453H2552.23V270.429C2556.9 267.741 2561.32 266.397 2565.48 266.397C2571.88 266.397 2576.23 268.221 2578.53 271.869C2580.9 275.453 2582.09 281.405 2582.09 289.725V315.453H2571.72V290.013C2571.72 284.829 2571.14 281.149 2569.99 278.973C2568.9 276.797 2566.63 275.709 2563.17 275.709C2559.91 275.709 2556.77 276.349 2553.77 277.629L2552.33 278.205V315.453ZM2623.93 276.381H2610.68V297.501C2610.68 301.405 2610.97 303.997 2611.55 305.277C2612.12 306.557 2613.6 307.197 2615.96 307.197L2623.84 306.909L2624.32 315.261C2620.03 316.093 2616.76 316.509 2614.52 316.509C2609.08 316.509 2605.34 315.261 2603.29 312.765C2601.31 310.269 2600.32 305.565 2600.32 298.653V276.381H2594.17V267.453H2600.32V253.533H2610.68V267.453H2623.93V276.381Z" fill="white"/>
</svg>
