<?xml version="1.0" encoding="UTF-8"?>
<svg id="Livello_1" data-name="Livello 1" xmlns="http://www.w3.org/2000/svg" version="1.1" viewBox="0 0 528.7 532.6">
  <defs>
    <style>
      .cls-1 {
        fill: #ce2937;
      }

      .cls-1, .cls-2, .cls-3, .cls-4 {
        stroke-width: 0px;
      }

      .cls-2 {
        fill: #0a9246;
      }

      .cls-5 {
        display: none;
        fill: none;
        stroke: #002a32;
        stroke-miterlimit: 10;
        stroke-width: 10px;
      }

      .cls-3 {
        fill: #000;
      }

      .cls-4 {
        fill: #fff;
      }
    </style>
  </defs>
  <g>
    <path class="cls-4" d="M391.8,354.3c21.1-35.8,11-86.4,10.9-86.6,0,0,0,0,0,0l-11.9-48.3c-.4-1.6-2.5-1.8-3.2-.4l-29.1,56.9c-.7,1.3.5,2.8,2,2.5l12.8-3.2h0c6.4,37.3-6.9,56.6-6.9,56.6l-75.4-71.3,50-52.9c3.9-4.1,10.5-4.2,14.4-.2l14.5,14.8,19.9-19.6-23.5-23.2c3,1,6.1,1.6,9.4,1.6,16.4,0,29.7-13.3,29.7-29.7,0-16.4-13.3-29.7-29.7-29.7-16.4,0-29.7,13.3-29.7,29.7,0,3.2.6,6.1,1.5,9l-23.7-24-19.6,19.9,15,14.7c4,4,4,10.5-.2,14.4l-53.8,50.8-53.8-50.8c-4.1-3.9-4.2-10.5-.2-14.4l15-14.7-19.6-19.9-23.7,24c.9-2.9,1.5-5.8,1.5-9,0-16.4-13.3-29.7-29.7-29.7-16.4,0-29.7,13.3-29.7,29.7,0,16.4,13.3,29.7,29.7,29.7,3.3,0,6.4-.7,9.4-1.6l-23.5,23.2,19.9,19.6,14.5-14.8c4-4,10.5-4,14.4.2l50,52.9-75.4,71.3s-13.3-19.3-6.9-56.6h0s12.8,3.2,12.8,3.2c1.4.4,2.6-1.2,2-2.5l-29.1-56.9c-.7-1.4-2.9-1.2-3.2.4l-11.9,48.3s0,0,0,0c0,.1-10.1,50.8,10.9,86.6,2.6,4.4,4.3,9.2,5,14.2.7,4.8-1.4,8.7-3.3,13.1-1.5,3.4-2.9,6.1-2,6.8h-.1c.7,1.1,3.4-.4,6.8-1.9,4.4-1.9,8.3-4,13.1-3.3,5,.7,9.8,2.4,14.2,5,35.8,21.1,86.4,11,86.6,10.9,0,0-.3-1.4-.9-3.5h0s.8,3.4.8,3.4l6.5-1.6,6.5,1.6.8-3.4h0c-.5,2.1-.9,3.4-.9,3.4.1,0,50.8,10.1,86.6-10.9,4.4-2.6,9.2-4.3,14.2-5,4.8-.7,8.7,1.4,13.1,3.3,3.5,1.5,6.1,2.9,6.8,2h-.1c.9-.8-.5-3.5-2-6.9-1.9-4.4-4-8.3-3.3-13.1.7-5,2.4-9.8,5-14.2ZM375.4,138.1c7.3,0,13.2,5.9,13.2,13.2s-5.9,13.2-13.2,13.2-13.2-5.9-13.2-13.2,5.9-13.2,13.2-13.2ZM154.5,164.7c-7.3,0-13.2-5.9-13.2-13.2s5.9-13.2,13.2-13.2,13.2,5.9,13.2,13.2-5.9,13.2-13.2,13.2ZM279.4,369.6l-.5-.3,3.1-12.6c.4-1.4-1.2-2.6-2.5-2l-14.5,7.4-14.5-7.4c-1.3-.7-2.8.5-2.5,2l3.1,12.6-.5.3c-37,6.3-56.2-6.9-56.2-6.9l70.6-74.8,70.6,74.8s-19.2,13.2-56.2,6.9Z"/>
    <g>
      <path class="cls-4" d="M43,370c9-4.7,19-1.6,23.6,7.2,3.4,6.6,2.3,13.3-1.3,17.2l-5.6-4.2c2.4-2.6,3.1-6.4,1.2-10.1-2.8-5.4-8.7-6.9-14.6-3.8-5.9,3.1-8,9-5.2,14.4,2.2,4.2,6.6,6.6,10.8,4.4h0s-4.2-8.1-4.2-8.1l5.3-2.8,7.5,14.4-3.2,1.7c-9.9,5.2-18.4.3-22-6.7-4.5-8.7-1.4-18.9,7.6-23.6Z"/>
      <path class="cls-4" d="M61.4,412.2l17.2-13.2,4.3,5.6-16.8,12.9c-3.2,2.5-3.9,6.6-1.4,9.8s6.6,3.6,9.8,1.1l16.8-12.9,4.3,5.6-17.2,13.2c-6,4.6-14,3.3-18.9-3.1-4.9-6.4-4.1-14.5,1.8-19.1Z"/>
      <path class="cls-4" d="M108.6,434.4l6.9,6.5-14.9,32.9-5.7-5.3,3.1-6.7-9.1-8.6-6.4,3.5-5.6-5.3,31.8-17.1ZM100.8,455.9l5.9-12.5-12.2,6.7,6.3,5.9Z"/>
      <path class="cls-4" d="M130.6,453.7l10.9,7.3c5.9,3.9,8,9.9,4,15.8-2.6,3.9-6.4,5.4-10.3,4.7l-1.1,15.7-6.6-4.4,1.1-14.1-4.2-2.8-6.9,10.3-5.9-4,19-28.4ZM132.8,474c2.5,1.7,5.2,1.2,6.7-1.1,1.6-2.4,1-5-1.5-6.7l-5-3.3-5.2,7.8,5,3.3Z"/>
      <path class="cls-4" d="M160.3,472.7l10.1,4.6c10.1,4.6,13.6,14.1,9.5,23.1-4.1,9-13.6,12.6-23.7,8l-10.1-4.6,14.2-31.1ZM159,502.9c6.1,2.8,11.7.6,14.5-5.4,2.8-6.1.6-11.7-5.4-14.4l-3.8-1.7-9,19.8,3.8,1.7Z"/>
      <path class="cls-4" d="M196.1,487.6l6.8,2.1-10.1,32.7-6.8-2.1,10.1-32.7Z"/>
      <path class="cls-4" d="M222.3,494.5l9.3,1.6,5.5,35.7-7.6-1.3-1-7.3-12.3-2.2-3.5,6.5-7.6-1.3,17.3-31.7ZM227.6,516.7l-1.9-13.7-6.5,12.2,8.4,1.5Z"/>
      <path class="cls-4" d="M271,516.3c-.8-10.2,5.9-18.2,15.8-19,7.4-.6,13.1,3,15.3,7.9l-6,3.5c-1.5-3.2-4.7-5.4-8.8-5-6,.5-9.7,5.3-9.2,12,.5,6.7,5,10.9,11,10.4,4.1-.3,6.9-3,7.9-6.4l6.5,2.5c-1.4,5.2-6.5,9.7-13.8,10.3-9.8.8-17.8-6.1-18.6-16.2Z"/>
      <path class="cls-4" d="M314,511.9c-2.7-9.7,2.8-19,12.8-21.8,10-2.8,19.5,2.5,22.2,12.2,2.7,9.7-2.8,19.1-12.8,21.9s-19.5-2.5-22.2-12.2ZM342.1,504.1c-1.8-6.4-7.6-9.5-13.6-7.9-6,1.7-9.4,7.4-7.6,13.7,1.8,6.4,7.6,9.6,13.6,7.9,6-1.7,9.4-7.4,7.6-13.8Z"/>
      <path class="cls-4" d="M362.8,505.2l4.1-4.9c3.2,2.7,7,3.3,10.3,1.7,2.6-1.2,3.7-3.3,2.7-5.3-.7-1.4-2-2-4.2-1.8l-7,.9c-5.7.7-9.6-1.1-11.6-5.2-2.6-5.4,0-11.3,6.3-14.3,5.6-2.7,11.5-1.8,15.5,2.2l-4.1,4.9c-2.5-2.3-5.8-2.9-8.8-1.5-2.6,1.2-3.7,3.4-2.7,5.4.7,1.4,2.2,2.1,4.3,1.8l6.8-.9c5.7-.8,9.6.9,11.5,5.1,2.6,5.4-.1,11.4-6.6,14.5-5.8,2.8-12.4,1.9-16.7-2.6Z"/>
      <path class="cls-4" d="M392.6,467.9l-7.2,4.8-3.4-5.2,20.2-13.5,3.4,5.2-7.1,4.7,15.6,23.3-5.9,4-15.6-23.3Z"/>
      <path class="cls-4" d="M408.7,448.6l5.5-4.6,21.9,26.2-5.5,4.6-21.9-26.2Z"/>
      <path class="cls-4" d="M422.5,436.8l15.9-16.6,4.5,4.3-11,11.5,5.6,5.4,10.4-10.8,4.5,4.3-10.4,10.8,5.7,5.4,11-11.5,4.5,4.3-15.9,16.6-24.7-23.7Z"/>
      <path class="cls-4" d="M444.1,413.4l7.6-10.7c4.1-5.8,10.1-7.7,15.9-3.5,3.8,2.7,5.2,6.5,4.4,10.4l15.6,1.5-4.6,6.5-14.1-1.5-2.9,4.1,10.1,7.2-4.1,5.8-27.9-19.8ZM464.4,411.7c1.7-2.4,1.3-5.1-.9-6.7-2.3-1.6-5-1.1-6.7,1.3l-3.5,4.9,7.7,5.4,3.5-4.9Z"/>
      <path class="cls-4" d="M467.9,376l4.2-8.5,35.8,4.6-3.4,7-7.3-1-5.5,11.3,5.3,5.1-3.4,6.9-25.6-25.4ZM490.8,377.1l-13.7-2,9.9,9.7,3.8-7.7Z"/>
    </g>
    <g>
      <path class="cls-4" d="M40.2,185c-8.4-2.9-12.4-11.2-9.6-19.3,2.1-6.1,7.1-9.4,11.8-9.4l.7,6.1c-3.1,0-6,1.8-7.1,5.2-1.7,5,.8,9.7,6.3,11.6,5.5,1.9,10.5-.1,12.2-5.1,1.2-3.4,0-6.6-2.3-8.6l4.3-4.3c3.7,2.9,5.4,8.6,3.3,14.7-2.8,8.1-11.2,12.1-19.6,9.1Z"/>
      <path class="cls-4" d="M44.9,134.2l4-7.3,31.1,5.4-3.2,6-6.3-1.2-5.2,9.6,4.4,4.7-3.2,5.9-21.4-23.2ZM64.9,136.1l-11.9-2.2,8.3,8.8,3.6-6.6Z"/>
      <path class="cls-4" d="M60.9,107.4l6.9-9.2c3.7-4.9,9-6.5,14-2.7,4.9,3.7,4.9,9.3,1.2,14.2l-3.2,4.2,8.6,6.5-3.8,5-23.8-18ZM78.8,106.5c1.6-2.1,1.3-4.4-.7-5.9-2-1.5-4.3-1.1-5.9,1l-3.2,4.2,6.6,5,3.2-4.2Z"/>
      <path class="cls-4" d="M82.9,80.3l4.3-4.5,21.7,20.6-4.3,4.5-21.7-20.6Z"/>
      <path class="cls-4" d="M104.8,66.5l-5.7,5-3.5-4.1,16.1-13.9,3.5,4.1-5.7,4.9,16,18.6-4.7,4.1-16-18.6Z"/>
      <path class="cls-4" d="M126.5,42.8l6.9-4.5,24.8,19.5-5.7,3.7-5-4-9.2,6,1.7,6.2-5.6,3.7-7.9-30.6ZM143.1,53.9l-9.4-7.6,3.1,11.7,6.3-4.1Z"/>
      <path class="cls-4" d="M153.4,26.7l4.4-2,19.6,10.7-7.3-16.2,5.7-2.5,12.2,27.3-4.4,2-19.7-11.1,7.4,16.6-5.7,2.5-12.2-27.3Z"/>
      <path class="cls-4" d="M189.8,11.8l19.4-5.4,1.5,5.2-13.4,3.8,1.8,6.5,12.6-3.5,1.5,5.2-12.6,3.5,1.9,6.6,13.4-3.8,1.5,5.2-19.4,5.5-8.1-28.8Z"/>
      <path class="cls-4" d="M221.9,3.7l11.3-1.5c6.1-.8,11,1.8,11.8,8.1.5,4.1-1.1,7.2-4,9.1l8.4,10.9-6.9.9-7.5-9.9-4.4.6,1.5,10.7-6.2.8-4-29.7ZM235.1,15.7c2.6-.3,4.1-2.2,3.8-4.6-.3-2.5-2.3-3.9-4.9-3.5l-5.2.7,1.1,8.2,5.2-.7Z"/>
      <path class="cls-4" d="M257.4.1h6.2c0-.1.7,29.8.7,29.8h-6.2c0,.1-.7-29.8-.7-29.8Z"/>
      <path class="cls-4" d="M277.8,0l20,1.6-.4,5.4-13.8-1.1-.5,6.8,13,1.1-.4,5.4-13-1.1-.6,6.8,13.8,1.1-.4,5.4-20-1.6L277.8,0Z"/>
      <path class="cls-4" d="M331.9,8.4l9.3,3c9.2,3,13.2,10.9,10.6,19.1-2.7,8.2-10.6,12.3-19.8,9.3l-9.3-3,9.2-28.4ZM333.8,34.8c5.5,1.8,10.2-.6,12-6.1,1.8-5.5-.6-10.2-6.2-12l-3.5-1.1-5.9,18.1,3.5,1.1Z"/>
      <path class="cls-4" d="M368.3,21.7l5.6,2.6-12.6,27.1-5.6-2.6,12.6-27.1Z"/>
      <path class="cls-4" d="M405.1,41.8l9.3,6.8c5,3.6,6.6,8.9,2.9,14-3.6,5-9.2,5-14.2,1.4l-4.2-3.1-6.4,8.8-5-3.7,17.6-24.2ZM406.3,59.6c2.1,1.5,4.5,1.2,5.9-.7,1.5-2,1-4.4-1.1-5.9l-4.3-3.1-4.8,6.6,4.3,3.1Z"/>
      <path class="cls-4" d="M422.4,73.6c6.3-6.2,15.7-6,22.1.5,6.4,6.5,6.4,15.9.1,22.1-6.3,6.2-15.8,6-22.1-.4s-6.4-16-.1-22.1ZM440.3,91.7c4.1-4.1,4-9.8.2-13.7s-9.6-4-13.7,0-4.1,9.9-.2,13.8c3.8,3.9,9.7,4,13.8,0Z"/>
      <path class="cls-4" d="M464.2,97l6.6,9.3c3.6,5.1,3.4,10.6-1.7,14.2-3.3,2.4-6.9,2.4-9.9.6l-5.8,12.5-4-5.7,5.4-11.2-2.6-3.6-8.9,6.3-3.6-5.1,24.4-17.3ZM459.7,114.3c1.5,2.1,3.9,2.6,5.9,1.2,2-1.4,2.4-3.8.9-5.9l-3-4.3-6.7,4.8,3,4.3Z"/>
      <path class="cls-4" d="M481.4,133.7l-3.5-6.7,4.8-2.5,9.9,18.8-4.8,2.5-3.5-6.6-21.7,11.4-2.9-5.5,21.7-11.4Z"/>
      <path class="cls-4" d="M483,157.9c8.3-2.9,16.8,1.4,19.8,9.9,3,8.6-1.1,17.2-9.4,20-8.3,2.9-16.8-1.4-19.8-9.9-3-8.5,1.1-17.2,9.4-20ZM491.4,182c5.5-1.9,7.9-7.1,6.1-12.3-1.8-5.2-6.9-7.8-12.4-5.9s-7.9,7.2-6.1,12.3c1.8,5.2,7,7.8,12.4,5.9Z"/>
    </g>
    <path class="cls-4" d="M392,354.3c21.1-35.8,11-86.4,10.9-86.6,0,0,0,0,0,0l-11.9-48.3c-.4-1.6-2.5-1.8-3.2-.4l-29.1,56.9c-.7,1.3.5,2.8,2,2.5l12.8-3.2h0c6.4,37.3-6.9,56.6-6.9,56.6l-75.4-71.3,50-52.9c3.9-4.1,10.5-4.2,14.4-.2l14.5,14.8,19.9-19.6-23.5-23.2c3,1,6.1,1.6,9.4,1.6,16.4,0,29.7-13.3,29.7-29.7,0-16.4-13.3-29.7-29.7-29.7-16.4,0-29.7,13.3-29.7,29.7,0,3.2.6,6.1,1.5,9l-23.7-24-19.6,19.9,15,14.7c4,4,4,10.5-.2,14.4l-53.8,50.8-53.8-50.8c-4.1-3.9-4.2-10.5-.2-14.4l15-14.7-19.6-19.9-23.7,24c.9-2.9,1.5-5.8,1.5-9,0-16.4-13.3-29.7-29.7-29.7-16.4,0-29.7,13.3-29.7,29.7,0,16.4,13.3,29.7,29.7,29.7,3.3,0,6.4-.7,9.4-1.6l-23.5,23.2,19.9,19.6,14.5-14.8c4-4,10.5-4,14.4.2l50,52.9-75.4,71.3s-13.3-19.3-6.9-56.6h0s12.8,3.2,12.8,3.2c1.4.4,2.6-1.2,2-2.5l-29.1-56.9c-.7-1.4-2.9-1.2-3.2.4l-11.9,48.3s0,0,0,0c0,.1-10.1,50.8,10.9,86.6,2.6,4.4,4.3,9.2,5,14.2.7,4.8-1.4,8.7-3.3,13.1-1.5,3.4-2.9,6.1-2,6.8h-.1c.7,1.1,3.4-.4,6.8-1.9,4.4-1.9,8.3-4,13.1-3.3,5,.7,9.8,2.4,14.2,5,35.8,21.1,86.4,11,86.6,10.9,0,0-.3-1.4-.9-3.5h0s.8,3.4.8,3.4l6.5-1.6,6.5,1.6.8-3.4h0c-.5,2.1-.9,3.4-.9,3.4.1,0,50.8,10.1,86.6-10.9,4.4-2.6,9.2-4.3,14.2-5,4.8-.7,8.7,1.4,13.1,3.3,3.5,1.5,6.1,2.9,6.8,2h-.1c.9-.8-.5-3.5-2-6.9-1.9-4.4-4-8.3-3.3-13.1.7-5,2.4-9.8,5-14.2ZM375.6,138.1c7.3,0,13.2,5.9,13.2,13.2s-5.9,13.2-13.2,13.2-13.2-5.9-13.2-13.2,5.9-13.2,13.2-13.2ZM154.7,164.7c-7.3,0-13.2-5.9-13.2-13.2s5.9-13.2,13.2-13.2,13.2,5.9,13.2,13.2-5.9,13.2-13.2,13.2ZM279.6,369.6l-.5-.3,3.1-12.6c.4-1.4-1.2-2.6-2.5-2l-14.5,7.4-14.5-7.4c-1.3-.7-2.8.5-2.5,2l3.1,12.6-.5.3c-37,6.3-56.2-6.9-56.2-6.9l70.6-74.8,70.6,74.8s-19.2,13.2-56.2,6.9Z"/>
    <path class="cls-4" d="M23.2,252.3l4.4,13.5c.2.5.6.8,1.1.8h14.2c1.2,0,1.6,1.5.7,2.1l-11.5,8.4c-.4.3-.6.8-.4,1.3l4.4,13.5c.4,1.1-.9,2-1.8,1.3l-11.5-8.4c-.4-.3-1-.3-1.4,0l-11.5,8.4c-.9.7-2.2-.2-1.8-1.3l4.4-13.5c.2-.5,0-1-.4-1.3l-11.5-8.4c-.9-.7-.5-2.1.7-2.1h14.2c.5,0,1-.3,1.1-.8l4.4-13.5c.4-1.1,1.9-1.1,2.3,0Z"/>
    <path class="cls-4" d="M507.7,252.3l4.4,13.5c.2.5.6.8,1.1.8h14.2c1.2,0,1.6,1.5.7,2.1l-11.5,8.4c-.4.3-.6.8-.4,1.3l4.4,13.5c.4,1.1-.9,2-1.8,1.3l-11.5-8.4c-.4-.3-1-.3-1.4,0l-11.5,8.4c-.9.7-2.2-.2-1.8-1.3l4.4-13.5c.2-.5,0-1-.4-1.3l-11.5-8.4c-.9-.7-.5-2.1.7-2.1h14.2c.5,0,1-.3,1.1-.8l4.4-13.5c.4-1.1,1.9-1.1,2.3,0Z"/>
    <g>
      <path class="cls-4" d="M229.9,107v-3.9h8.6v3.9h-8.6ZM234.5,126.2v-23h4.4v23h-4.4Z"/>
      <path class="cls-4" d="M251.6,126.5c-1.6,0-3.1-.3-4.2-.9-1.2-.6-2.1-1.4-2.8-2.4s-1-2.2-1-3.5.2-2,.6-2.9c.4-.9,1-1.6,1.8-2.2.8-.6,1.7-1,2.7-1.3v1.1c-1-.2-1.7-.6-2.3-1.1-.6-.5-1.1-1.2-1.4-2-.3-.8-.5-1.5-.5-2.3,0-1.2.3-2.3.9-3.3.6-.9,1.4-1.7,2.5-2.2,1.1-.5,2.3-.8,3.7-.8s2.6.3,3.6.8c1.1.5,1.9,1.3,2.5,2.2s.9,2,.9,3.3-.2,1.6-.5,2.3c-.3.8-.8,1.4-1.4,2-.6.5-1.3.9-2.2,1.1v-1.1c1,.2,1.9.7,2.7,1.3.8.6,1.4,1.3,1.8,2.2.4.9.6,1.8.6,2.9s-.3,2.4-1,3.5-1.6,1.8-2.8,2.4-2.6.9-4.2.9ZM251.6,122.6c.7,0,1.4-.1,1.9-.4.6-.3,1-.7,1.3-1.2.3-.5.5-1.1.5-1.8s-.2-1.3-.5-1.8c-.3-.5-.8-.9-1.3-1.2-.6-.3-1.2-.4-1.9-.4s-1.4.1-1.9.4c-.6.3-1,.7-1.3,1.2-.3.5-.5,1.1-.5,1.8s.2,1.2.5,1.8c.3.5.8.9,1.3,1.2.6.3,1.2.4,1.9.4ZM251.6,112.3c.9,0,1.6-.3,2.1-.8.5-.5.8-1.2.8-2.1s-.3-1.6-.8-2.1c-.5-.5-1.2-.8-2.1-.8s-1.6.3-2.1.8c-.6.5-.8,1.2-.8,2.1s.3,1.6.8,2.1c.6.5,1.3.8,2.1.8Z"/>
      <path class="cls-4" d="M271.3,126.5c-1.6,0-3-.4-4.2-1.1-1.3-.7-2.3-1.7-3-2.9-.7-1.2-1.1-2.6-1.1-4s.7-4.1,2.1-6.1l6.4-9.2h5.1l-7,9.8-1.6.5c.2-.5.5-.9.9-1.3.3-.4.8-.7,1.3-.9.5-.2,1.2-.3,2.1-.3,1.4,0,2.6.3,3.7,1,1.1.6,2,1.5,2.7,2.7s1,2.4,1,3.9-.4,2.9-1.1,4.1c-.7,1.2-1.7,2.2-3,2.9-1.3.7-2.7,1.1-4.2,1.1ZM271.3,122.5c.8,0,1.4-.2,2-.5.6-.4,1.1-.9,1.4-1.5.3-.6.5-1.3.5-2.1s-.2-1.5-.5-2.1c-.4-.6-.8-1.1-1.4-1.5-.6-.3-1.3-.5-2-.5s-1.5.2-2,.5c-.6.4-1.1.8-1.4,1.5-.3.6-.5,1.3-.5,2.1s.2,1.5.5,2.1c.3.6.8,1.1,1.4,1.5.6.4,1.3.5,2,.5Z"/>
      <path class="cls-4" d="M290.2,126.5c-1.6,0-3-.3-4.4-.8s-2.4-1.4-3.3-2.4l3-2.9c.4.7,1.1,1.2,1.9,1.6.8.4,1.7.6,2.7.6s1.7-.2,2.3-.5,1.2-.8,1.6-1.4c.4-.6.6-1.3.6-2.1s-.2-1.6-.6-2.2-.9-1-1.5-1.3-1.3-.5-2.1-.5-1.6.1-2.2.3-1.3.5-1.9,1l.3-2.8c.4-.4.9-.8,1.3-1.1.5-.3,1-.5,1.6-.6.6-.1,1.3-.2,2-.2,1.7,0,3.1.3,4.2,1s2,1.6,2.6,2.8c.6,1.1.9,2.4.9,3.8s-.4,2.9-1.1,4-1.8,2.1-3.1,2.8c-1.3.7-2.9,1-4.6,1ZM286.2,115.8l-2.1-2.1,1.1-10.6h4l-1.2,10.8-1.8,1.9ZM285.8,107l-.7-3.9h12.7v3.9h-12Z"/>
    </g>
    <g>
      <g>
        <g>
          <path class="cls-1" d="M208.1,306c0-.2.1-.4.2-.5,14.6-27.8,29.2-55.6,43.8-83.4,0-.2.2-.3.2-.4h75.3c-.1.2-.2.4-.3.6-3.3,6.3-6.6,12.5-9.9,18.8-11.3,21.4-22.5,42.8-33.8,64.2-.1.2-.2.4-.3.6h-75.3ZM294.6,263.7c0-14.3-12.3-25.3-26.7-25.3-14.5,0-26.6,11.2-26.6,25.3,0,14.1,12.1,25.3,26.7,25.3,14.4,0,26.6-11,26.6-25.3Z"/>
          <path class="cls-4" d="M294.6,263.7c0,14.3-12.2,25.3-26.6,25.3-14.6,0-26.6-11.2-26.7-25.3,0-14.1,12.1-25.3,26.6-25.3,14.4,0,26.6,11,26.7,25.3ZM267,251.6c-2.2,0-4.2,0-6.3,0-.1,0-.3,0-.4-.2-.6-.6-1.4-.7-2.2-.5-.8.2-1.4.8-1.4,1.4,0,.7.4,1.3,1.1,1.6.9.4,1.7.2,2.4-.3.3-.2.5-.3.8-.3,1.8,0,3.7,0,5.5,0,.2,0,.3,0,.6,0,0,.2,0,.4,0,.6,0,7.6,0,15.2,0,22.8,0,.3,0,.5,0,.8-.2,1-.9,1.6-2,1.5-.7,0-1.3-.1-2-.2-2.3-.5-4.3-1.5-6.1-2.9-1.3-1-2.5-2.2-3.3-3.7-.4-.8-.7-1.6-.8-2.4,0-.7.2-1.3.9-1.6.2-.1.5-.2.7-.3.1,0,.2,0,.5-.2-2.4-.6-4.8-1.3-6.8-2.8.5,2.5,0,4.8-.6,7.2.4-.4.7-.7,1.1-.9,1-.6,1.6-.5,2.2.3.3.4.6.8,1,1.2.5.6.9,1.2,1.4,1.8,2,2.6,4.5,4.3,7.7,5.3,1.3.4,2.6.8,4,1.2,1.2.3,2,1,2.6,2,.2.3.3.5.6.9.1-.2.3-.4.4-.6.7-1.3,1.7-2.1,3.2-2.5,0,0,.2,0,.3,0,1.1-.3,2.2-.7,3.4-1,2.9-.9,5.4-2.5,7.3-4.8.7-.8,1.3-1.6,1.9-2.5.4-.5.7-.9,1.1-1.4.3-.4.8-.4,1.2-.3.5.1.9.4,1.2.8.1.1.3.3.4.4,0,0,0,0,0,0-.6-2.3-1-4.6-.6-7-2.1,1.5-4.4,2.1-6.8,2.8.3.1.5.2.7.2,1.2.4,1.5,1,1.3,2.2,0,0,0,0,0,.1-.2,1.3-.8,2.4-1.6,3.3-2.6,3.1-5.9,5-10.1,5.4-1.2.1-2.1-.6-2.2-1.7,0-.1,0-.3,0-.4,0-7.7,0-15.3,0-23,0-.1,0-.3,0-.5.1,0,.2,0,.3,0,2,0,3.9,0,5.9,0,.3,0,.4.1.6.3.8.7,2.1.7,3,0,.8-.6.8-1.6.1-2.2-.8-.8-2.1-.8-3-.1-.2.2-.4.3-.7.3-1.9,0-3.8,0-5.7,0-.2,0-.3,0-.5,0v-2.1c1.7-.6,2.5-2,2.3-3.4-.2-1.4-1.6-2.7-3-2.7-1.6-.1-3,.8-3.5,2.2-.2.7-.2,1.4,0,2.1.4,1,1.2,1.6,2.1,1.9v2.1Z"/>
          <path class="cls-3" d="M267,251.6v-2.1c-1-.3-1.8-.9-2.1-1.9-.3-.7-.3-1.4,0-2.1.4-1.4,1.9-2.3,3.5-2.2,1.5,0,2.8,1.3,3,2.7.2,1.4-.6,2.8-2.3,3.4v2.1c.2,0,.3,0,.5,0,1.9,0,3.8,0,5.7,0,.3,0,.5,0,.7-.3.9-.7,2.2-.6,3,.1.7.7.6,1.7-.1,2.2-.8.6-2.2.6-3,0-.2-.2-.3-.3-.6-.3-2,0-3.9,0-5.9,0-.1,0-.2,0-.3,0,0,.2,0,.3,0,.5,0,7.7,0,15.3,0,23,0,.1,0,.3,0,.4.1,1.2,1,1.9,2.2,1.7,4.2-.4,7.5-2.3,10.1-5.4.8-1,1.4-2.1,1.6-3.3,0,0,0,0,0-.1.2-1.2-.2-1.7-1.3-2.2-.2,0-.4-.1-.7-.2,2.4-.6,4.7-1.3,6.8-2.8-.4,2.5,0,4.8.6,7,0,0,0,0,0,0-.1-.1-.3-.3-.4-.4-.3-.3-.7-.6-1.2-.8-.5-.1-.9,0-1.2.3-.4.4-.8.9-1.1,1.4-.6.8-1.3,1.7-1.9,2.5-1.9,2.3-4.4,3.9-7.3,4.8-1.1.4-2.2.7-3.4,1,0,0-.2,0-.3,0-1.5.4-2.5,1.2-3.2,2.5,0,.2-.2.3-.4.6-.2-.3-.4-.6-.6-.9-.6-1-1.5-1.7-2.6-2-1.3-.4-2.7-.8-4-1.2-3.1-1-5.7-2.8-7.7-5.3-.5-.6-.9-1.2-1.4-1.8-.3-.4-.6-.8-1-1.2-.6-.8-1.2-.9-2.2-.3-.4.2-.7.6-1.1.9.6-2.4,1.1-4.7.6-7.2,2.1,1.5,4.4,2.1,6.8,2.8-.2,0-.3.1-.5.2-.2,0-.5.2-.7.3-.7.3-1,.9-.9,1.6,0,.9.3,1.7.8,2.4.8,1.5,1.9,2.6,3.3,3.7,1.8,1.4,3.8,2.4,6.1,2.9.6.1,1.3.2,2,.2,1,0,1.8-.6,2-1.5,0-.3,0-.5,0-.8,0-7.6,0-15.2,0-22.8,0-.2,0-.4,0-.6-.2,0-.4,0-.6,0-1.8,0-3.7,0-5.5,0-.3,0-.6,0-.8.3-.7.6-1.5.7-2.4.3-.8-.3-1.2-1-1.1-1.6,0-.7.7-1.3,1.4-1.4.8-.2,1.6,0,2.2.5.1,0,.3.2.4.2,2.1,0,4.2,0,6.3,0ZM267.9,245c-.9,0-1.7.8-1.7,1.6,0,.8.8,1.5,1.6,1.5,1,0,1.6-.7,1.6-1.5,0-.9-.7-1.5-1.6-1.5Z"/>
        </g>
        <path class="cls-4" d="M267.9,245c.9,0,1.6.7,1.6,1.5,0,.9-.7,1.5-1.6,1.5-.8,0-1.6-.7-1.6-1.5,0-.8.8-1.6,1.7-1.6Z"/>
      </g>
      <polygon class="cls-2" points="243.9 221.7 199.6 306 190.9 306 235.3 221.7 243.9 221.7"/>
      <polygon class="cls-4" points="252.6 221.7 208.3 306 199.6 306 243.9 221.7 252.6 221.7"/>
    </g>
  </g>
  <circle class="cls-5" cx="264.3" cy="266.3" r="287.6"/>
</svg>